<?xml version="1.0" encoding="UTF-8" standalone="no"?>
<!-- Created with Inkscape (http://www.inkscape.org/) -->
<svg
   xmlns:dc="http://purl.org/dc/elements/1.1/"
   xmlns:cc="http://web.resource.org/cc/"
   xmlns:rdf="http://www.w3.org/1999/02/22-rdf-syntax-ns#"
   xmlns:svg="http://www.w3.org/2000/svg"
   xmlns="http://www.w3.org/2000/svg"
   xmlns:sodipodi="http://sodipodi.sourceforge.net/DTD/sodipodi-0.dtd"
   xmlns:inkscape="http://www.inkscape.org/namespaces/inkscape"
   width="276.17255"
   height="217.15582"
   id="svg1880"
   sodipodi:version="0.32"
   inkscape:version="0.44.1"
   sodipodi:docbase="/home/user/projects/mock-objects-book/docbook/src/figures"
   sodipodi:docname="feedback-on-diagnostics.svg"
   version="1.0">
  <defs
     id="defs1882" />
  <sodipodi:namedview
     id="base"
     pagecolor="#ffffff"
     bordercolor="#666666"
     borderopacity="1.0"
     inkscape:pageopacity="0.0"
     inkscape:pageshadow="2"
     inkscape:zoom="1.6877072"
     inkscape:cx="115.40089"
     inkscape:cy="120.28153"
     inkscape:current-layer="layer1"
     inkscape:document-units="px"
     inkscape:window-width="1024"
     inkscape:window-height="613"
     inkscape:window-x="-4"
     inkscape:window-y="-35"
     showguides="false"
     inkscape:guide-bbox="true"
     width="7.7942032cm"
     height="6.12862cm"
     units="cm">
    <sodipodi:guide
       orientation="horizontal"
       position="391.39498"
       id="guide2309" />
    <sodipodi:guide
       orientation="horizontal"
       position="121.86983"
       id="guide2981" />
  </sodipodi:namedview>
  <metadata
     id="metadata1885">
    <rdf:RDF>
      <cc:Work
         rdf:about="">
        <dc:format>image/svg+xml</dc:format>
        <dc:type
           rdf:resource="http://purl.org/dc/dcmitype/StillImage" />
      </cc:Work>
    </rdf:RDF>
  </metadata>
  <g
     inkscape:label="Layer 1"
     id="layer1"
     inkscape:groupmode="layer"
     transform="translate(-110.755,-122.3136)">
    <g
       id="g3009"
       transform="translate(0,2.585062)">
      <g
         transform="translate(17.53416,0)"
         id="g2965">
        <path
           id="path2159"
           d="M 107.1982,213.88277 C 106.43579,216.68744 104.44244,221.7689 106.05286,223.53303 C 107.80694,220.55941 111.04413,220.48427 112.73591,223.5346 C 116.76977,224.9793 117.57049,219.23349 117.42754,216.37338 C 117.47829,213.85717 116.47077,211.22802 115.99186,209.04441 C 119.09531,210.56512 118.7772,214.49965 119.01083,217.42074 C 118.83758,220.32749 118.06848,224.64774 114.7119,225.29825 C 111.37694,226.40856 109.91015,219.94421 107.54866,224.0823 C 103.00282,227.34496 103.90897,219.15614 105.06354,216.75628 C 105.64147,215.81082 105.5088,212.60262 107.1982,213.88277 z "
           style="fill:black;fill-opacity:1;stroke-width:1;stroke-miterlimit:4;stroke-dasharray:none" />
        <path
           id="path2161"
           d="M 121.93647,219.98161 C 121.94464,221.3456 124.16142,224.39196 121.55116,223.57448 C 121.52737,220.71914 121.89972,217.01801 124.84351,215.65951 C 126.39895,215.06322 128.92027,216.12505 125.99317,216.67666 C 122.58886,217.89654 124.33885,222.49971 122.31822,224.18372 C 121.45739,224.8393 119.63695,219.23253 121.93647,219.98161 z "
           style="fill:black;fill-opacity:1;stroke-width:1;stroke-miterlimit:4;stroke-dasharray:none" />
        <path
           id="path2163"
           d="M 131.58614,217.19985 C 132.41443,219.00317 131.23453,224.58853 130.31578,220.24454 C 130.41085,218.73858 129.28716,216.84828 131.58614,217.19985 z "
           style="fill:black;fill-opacity:1;stroke-width:1;stroke-miterlimit:4;stroke-dasharray:none" />
        <path
           id="path2165"
           d="M 136.41958,209.25767 C 136.44591,213.4467 136.31121,217.68438 135.69558,221.82952 C 133.71803,219.23591 135.04439,214.64853 134.91607,211.32099 C 134.84944,209.6692 134.7187,209.18803 136.41958,209.25767 z "
           style="fill:black;fill-opacity:1;stroke-width:1;stroke-miterlimit:4;stroke-dasharray:none" />
        <path
           id="path2167"
           d="M 134.1151,218.61193 C 135.56783,217.79663 140.16578,216.1207 140.22785,216.79097 C 138.69749,217.2308 134.7159,221.36576 134.1151,218.61193 z "
           style="fill:black;fill-opacity:1;stroke-width:1;stroke-miterlimit:4;stroke-dasharray:none" />
        <path
           id="path2169"
           d="M 141.72593,216.50702 C 143.74735,217.48825 147.09889,214.47848 143.52863,216.23891 C 140.11608,218.19299 142.47735,222.54728 145.96103,222.22625 C 150.42296,222.22538 144.15697,224.43379 142.68753,222.98775 C 138.17808,221.23855 140.30074,214.51823 144.59443,214.14911 C 149.40137,214.49547 144.70854,219.47631 141.85353,217.90033 C 141.02984,217.98394 141.78077,216.8996 141.72593,216.50702 z "
           style="fill:black;fill-opacity:1;stroke-width:1;stroke-miterlimit:4;stroke-dasharray:none" />
        <path
           id="path2171"
           d="M 165.65721,217.96383 C 163.88439,214.2538 158.03229,219.9783 160.92553,220.48899 C 162.748,219.32897 165.52073,216.53352 166.42711,220.24255 C 167.22248,221.66545 167.61477,224.83451 165.78802,222.21652 C 164.17693,221.18411 165.26856,218.34381 163.7741,220.73641 C 161.28221,223.9613 156.38787,221.23984 159.18679,217.74101 C 160.51902,214.93637 165.91153,214.42226 166.43098,217.28463 C 166.17306,217.51103 165.91513,217.73743 165.65721,217.96383 z "
           style="fill:black;fill-opacity:1;stroke-width:1;stroke-miterlimit:4;stroke-dasharray:none" />
        <path
           id="path2189"
           d="M 131.26218,212.34611 C 131.5323,215.55106 128.77228,213.5449 130.00993,212.29349 C 130.42735,212.31103 130.84477,212.32857 131.26218,212.34611 z "
           style="fill:black;fill-opacity:1;stroke-width:1;stroke-miterlimit:4;stroke-dasharray:none" />
      </g>
      <g
         transform="translate(-2.629484,4)"
         id="g2991">
        <g
           id="g2955">
          <path
             style="fill:black;fill-opacity:1;stroke-width:1;stroke-miterlimit:4;stroke-dasharray:none"
             d="M 116.7468,234.85825 C 117.9564,233.17862 117.68341,227.97256 116.58444,228.2468 C 115.58552,234.01113 116.9036,239.87752 117.22217,245.64643 C 116.79889,250.55783 111.97212,244.82482 113.79355,242.2617 C 115.97404,238.275 121.00066,237.11522 124.87067,235.28295 C 126.19684,234.80582 126.16209,237.2111 124.46411,236.93303 C 121.41948,237.63993 121.05795,242.8203 124.3267,239.27332 C 125.49187,238.18889 126.90198,234.43115 127.8952,237.42328 C 127.28119,238.97201 129.71384,244.12646 126.99322,241.05517 C 125.30699,239.80201 126.16007,234.33124 127.79806,236.98952 C 126.85422,239.6854 123.13495,244.00384 120.38072,241.19692 C 118.95302,238.12615 124.88162,233.1571 126.41525,235.95991 C 123.51682,237.95373 118.9163,238.67549 116.03353,241.38401 C 113.22591,242.08228 116.6239,249.11867 115.59792,244.90529 C 115.23483,239.50975 114.27367,234.08221 114.92034,228.67408 C 116.29041,223.38889 120.55464,229.6622 118.79017,232.55241 C 118.39386,233.68692 118.41504,236.36438 116.7468,234.85825 z "
             id="path2173" />
          <path
             style="fill:black;fill-opacity:1;stroke-width:1;stroke-miterlimit:4;stroke-dasharray:none"
             d="M 133.39493,237.22749 C 133.97084,238.63284 133.82505,244.58917 132.39549,240.64119 C 132.25826,239.11509 130.92116,236.9237 133.39493,237.22749 z "
             id="path2175" />
          <path
             style="fill:black;fill-opacity:1;stroke-width:1;stroke-miterlimit:4;stroke-dasharray:none"
             d="M 135.2731,226.47312 C 136.79481,231.50021 137.43523,236.78188 137.91324,241.9967 C 137.43494,244.28076 135.73809,239.1806 135.91901,238.0725 C 135.27192,234.37268 134.85097,230.62744 133.89202,226.98828 C 134.35238,226.81656 134.81274,226.64484 135.2731,226.47312 z "
             id="path2177" />
          <path
             style="fill:black;fill-opacity:1;stroke-width:1;stroke-miterlimit:4;stroke-dasharray:none"
             d="M 140.63805,237.73255 C 141.20303,239.0782 140.87287,244.22183 139.59969,240.69898 C 139.46516,239.2326 138.40597,237.53952 140.63805,237.73255 z "
             id="path2179" />
          <path
             style="fill:black;fill-opacity:1;stroke-width:1;stroke-miterlimit:4;stroke-dasharray:none"
             d="M 142.52666,236.40844 C 143.26748,237.51055 143.91495,241.40663 143.52898,238.92673 C 144.10197,235.94931 148.35315,234.32679 149.49617,237.84085 C 150.41108,239.21495 151.20849,243.54541 148.77331,240.46376 C 148.40246,238.31043 146.11677,236.11129 145.371,239.23627 C 143.88503,243.17591 141.21873,239.57081 141.01997,237.00856 C 141.5222,236.80852 142.02443,236.60848 142.52666,236.40844 z "
             id="path2181" />
          <path
             style="fill:black;fill-opacity:1;stroke-width:1;stroke-miterlimit:4;stroke-dasharray:none"
             d="M 156.49455,236.23884 C 153.47242,234.39362 153.03233,242.35587 155.81308,238.39475 C 156.62819,237.52777 156.58062,236.12889 156.07832,235.85909 C 159.77652,235.49207 159.17709,241.42504 159.9329,244.12336 C 160.5101,248.82792 153.8258,248.70507 151.93886,245.49751 C 151.30057,244.02695 155.50249,247.47219 157.00757,246.19186 C 159.79037,243.82752 156.74407,239.42692 156.39947,236.34568 C 160.5347,235.24321 156.20782,243.04535 153.24327,240.857 C 150.35709,238.43773 154.07298,232.4483 157.45952,235.13265 C 157.13786,235.50138 156.8162,235.87011 156.49455,236.23884 z "
             id="path2183" />
          <path
             style="fill:black;fill-opacity:1;stroke-width:1;stroke-miterlimit:4;stroke-dasharray:none"
             d="M 133.02613,231.87492 C 134.00854,235.82259 129.35198,233.63157 131.73022,231.84169 C 132.16219,231.85277 132.59416,231.86385 133.02613,231.87492 z "
             id="path2185" />
          <path
             style="fill:black;fill-opacity:1;stroke-width:1;stroke-miterlimit:4;stroke-dasharray:none"
             d="M 140.60891,231.88007 C 141.04332,233.81781 139.12306,235.2664 138.80649,232.56143 C 138.40149,231.50346 140.08002,232.09321 140.60891,231.88007 z "
             id="path2187" />
        </g>
        <g
           id="g2983"
           transform="translate(-2.375903,-1.161446)">
          <path
             style="fill:black;fill-opacity:1;stroke-width:1;stroke-miterlimit:4;stroke-dasharray:none"
             d="M 173.12435,229.3706 C 172.78144,233.98309 173.57422,238.80743 172.59743,243.28685 C 170.80803,243.85369 171.54351,237.7541 171.32135,235.89131 C 171.97021,233.96381 169.8849,228.16972 173.12435,229.3706 z "
             id="path2191" />
          <path
             style="fill:black;fill-opacity:1;stroke-width:1;stroke-miterlimit:4;stroke-dasharray:none"
             d="M 168.10992,236.57759 C 171.29087,235.84867 175.13786,233.83975 178.10448,234.61497 C 175.42079,236.26193 170.97394,238.21116 168.49682,237.66243 C 168.36786,237.30082 168.23889,236.93921 168.10992,236.57759 z "
             id="path2193" />
          <path
             style="fill:black;fill-opacity:1;stroke-width:1;stroke-miterlimit:4;stroke-dasharray:none"
             d="M 180.49687,238.26466 C 181.92024,237.93335 184.45914,234.94288 181.29924,236.44528 C 178.93492,237.14092 177.79658,241.08739 181.3415,240.12689 C 182.76127,240.42945 188.02344,238.28636 184.32357,240.33098 C 181.45104,243.25182 174.49325,241.1724 178.1812,236.79336 C 179.51516,233.37043 186.92711,234.37145 183.32491,238.0374 C 182.32326,238.86215 180.80966,240.36991 180.49687,238.26466 z "
             id="path2195" />
          <path
             style="fill:black;fill-opacity:1;stroke-width:1;stroke-miterlimit:4;stroke-dasharray:none"
             d="M 190.097,236.68681 C 189.03473,237.25379 185.84132,237.90912 188.01534,236.48767 C 190.63626,236.69215 196.62633,238.84093 193.03976,241.865 C 191.64602,243.59538 186.8546,243.00777 188.14236,240.84764 C 189.83504,242.46079 194.72844,239.38945 190.3694,238.95519 C 188.54654,239.00398 183.81514,236.74642 187.66992,235.68229 C 189.27063,235.28378 190.16814,234.73604 190.097,236.68681 z "
             id="path2197" />
          <path
             style="fill:black;fill-opacity:1;stroke-width:1;stroke-miterlimit:4;stroke-dasharray:none"
             d="M 196.67868,229.191 C 197.42985,233.57575 198.98819,239.15735 197.53647,243.16626 C 196.18954,239.21169 195.82169,233.83175 195.26779,229.82929 C 195.73809,229.61653 196.20838,229.40376 196.67868,229.191 z "
             id="path2199" />
          <path
             style="fill:black;fill-opacity:1;stroke-width:1;stroke-miterlimit:4;stroke-dasharray:none"
             d="M 192.79204,235.58971 C 196.67388,234.48178 200.46545,232.77547 204.53729,232.56964 C 203.37187,235.0017 199.25422,235.22007 196.70729,236.23636 C 194.93513,236.46765 192.95335,238.43922 192.79204,235.58971 z "
             id="path2201" />
        </g>
      </g>
    </g>
    <g
       id="g2279"
       transform="matrix(0.350831,0,0,0.350831,115.9324,177.3206)"
       style="fill:black">
      <path
         style="opacity:1;fill:black;fill-opacity:1;stroke-width:1;stroke-miterlimit:4;stroke-dasharray:none"
         d="M 561.44342,119.82647 C 559.90079,125.77954 564.34775,137.56251 559.80524,139.41684 C 553.94994,133.30216 561.09769,121.34465 561.19182,113.0427 C 560.24467,105.75306 569.11382,91.726986 572.68188,104.47522 C 574.11044,110.53114 575.62772,115.2067 577.82427,106.65909 C 586.9172,93.980245 590.48665,115.21436 591.96568,122.05547 C 595.50014,127.50205 594.2724,144.17262 589.07332,131.26166 C 587.36202,125.1723 583.98211,108.34978 582.60869,108.64665 C 581.66033,118.1826 569.96092,120.31546 568.98091,109.43492 C 567.56893,105.23298 566.58081,100.13669 567.50013,107.32707 C 564.87014,117.15383 563.19612,127.27901 562.63812,137.4288 C 554.06087,145.99954 557.86955,126.8427 557.2184,121.37708 C 556.17962,118.4834 560.05098,120.27955 561.44342,119.82647 z "
         id="path2203" />
      <path
         style="opacity:1;fill:black;fill-opacity:1;stroke-width:1;stroke-miterlimit:4;stroke-dasharray:none"
         d="M 612.03021,120.2195 C 610.45794,111.59284 596.26792,121.86543 597.68005,128.79443 C 602.11886,137.82425 609.03288,113.76008 613.37791,125.23809 C 614.72296,130.34353 615.0503,138.96283 618.82354,129.78367 C 624.39998,121.89591 619.44113,106.54759 626.69588,102.19915 C 628.19049,110.22206 628.8948,124.93418 626.58219,130.29139 C 629.71675,122.38008 636.96218,109.56223 646.11209,111.61757 C 646.71738,118.09153 634.56055,119.31085 633.83683,126.89384 C 632.78161,136.11095 622.73351,137.82424 622.89997,127.34924 C 624.11473,119.68753 620.11899,108.27849 625.56954,102.78257 C 628.64415,111.52318 620.18894,125.61168 616.87304,135.66078 C 608.84823,141.7429 605.80154,118.38054 612.10931,123.71917 C 613.12724,133.63482 593.64062,141.69425 592.81022,128.78254 C 592.35675,118.46779 608.01008,105.88231 615.43969,116.41828 C 617.03408,120.28943 616.00519,122.93792 612.03021,120.2195 z "
         id="path2205" />
      <path
         style="opacity:1;fill:black;fill-opacity:1;stroke-width:1;stroke-miterlimit:4;stroke-dasharray:none"
         d="M 639.51178,122.25041 C 636.41577,130.44516 650.02195,130.25362 649.10011,132.51947 C 641.98634,139.6829 631.19669,126.9348 636.4539,121.92722 C 637.47319,122.03495 638.49249,122.14268 639.51178,122.25041 z "
         id="path2207" />
      <path
         style="opacity:1;fill:black;fill-opacity:1;stroke-width:1;stroke-miterlimit:4;stroke-dasharray:none"
         d="M 656.87555,123.89242 C 662.0667,124.29708 677.43133,115.83304 665.32718,117.33015 C 655.19704,121.24712 658.76143,136.27687 669.26234,136.60728 C 672.65251,137.08799 682.60764,135.74904 673.84029,139.09896 C 662.11624,145.89868 647.79122,129.6206 656.3158,118.97523 C 659.39513,107.72151 682.94518,111.65031 672.30298,122.84566 C 668.75602,124.23821 655.87113,132.13775 656.87555,123.89242 z "
         id="path2209" />
      <path
         style="opacity:1;fill:black;fill-opacity:1;stroke-width:1;stroke-miterlimit:4;stroke-dasharray:none"
         d="M 712.23407,104.06442 C 711.99907,116.4102 714.53785,130.90623 709.90538,141.85585 C 705.16192,130.52296 708.45893,116.8319 707.01449,104.5469 C 708.75435,104.38607 710.49421,104.22525 712.23407,104.06442 z "
         id="path2211" />
      <path
         style="opacity:1;fill:black;fill-opacity:1;stroke-width:1;stroke-miterlimit:4;stroke-dasharray:none"
         d="M 692.19446,120.90813 C 705.48665,120.15872 715.84807,109.40419 719.33549,97.053015 C 728.52318,94.714672 723.88857,111.79976 725.04756,118.41325 C 726.48604,123.86847 722.38165,138.71043 729.10249,128.17906 C 736.74007,116.22539 747.29612,135.12567 739.11533,139.64256 C 735.5004,134.68351 736.81129,125.15899 730.72159,134.23574 C 721.66638,144.38359 718.45926,128.3977 720.02284,121.13696 C 722.01641,114.24103 714.63373,101.24123 723.68294,99.180964 C 719.83758,113.27106 707.17151,125.03974 692.22659,125.50126 C 692.21588,123.97022 692.20517,122.43917 692.19446,120.90813 z "
         id="path2213" />
      <path
         style="opacity:1;fill:black;fill-opacity:1;stroke-width:1;stroke-miterlimit:4;stroke-dasharray:none"
         d="M 748.1886,123.45164 C 752.78261,123.86372 764.87267,116.09997 758.9946,114.33315 C 750.21183,120.19282 753.28433,136.34465 764.70612,136.69993 C 769.17516,136.19573 777.1637,134.83309 768.73928,139.24349 C 758.97254,145.26678 746.2778,133.95764 748.93943,123.40464 C 745.37597,111.06141 769.40348,102.63092 764.89067,118.56527 C 763.04899,123.29547 747.78982,133.0329 748.22348,123.84399 L 748.1886,123.45164 z "
         id="path2215" />
      <path
         style="opacity:1;fill:black;fill-opacity:1;stroke-width:1;stroke-miterlimit:4;stroke-dasharray:none"
         d="M 571.44281,170.53532 C 568.25825,185.4273 568.42435,200.80929 565.21392,215.71746 C 562.93935,208.24134 563.81091,197.40489 564.13115,188.68732 C 565.68567,183.27638 563.09784,169.97793 568.99007,169.76993 C 569.80765,170.02506 570.62523,170.28019 571.44281,170.53532 z "
         id="path2227" />
      <path
         style="opacity:1;fill:black;fill-opacity:1;stroke-width:1;stroke-miterlimit:4;stroke-dasharray:none"
         d="M 557.9162,190.43819 C 554.954,192.45584 551.13583,197.88159 551.64682,190.61792 C 562.84812,187.77269 574.41851,181.61599 585.9472,182.95987 C 587.90931,188.26813 571.36542,188.95379 566.46531,191.59885 C 562.0708,192.92566 546.90684,199.42034 549.67693,190.91111 C 553.28975,188.57367 555.81198,184.89859 557.9162,190.43819 z "
         id="path2229" />
      <path
         style="opacity:1;fill:black;fill-opacity:1;stroke-width:1;stroke-miterlimit:4;stroke-dasharray:none"
         d="M 581.66077,195.27679 C 588.24899,194.59576 597.39469,186.64353 600.5358,187.25494 C 595.23388,189.15391 580.85484,198.87432 590.19217,203.0819 C 600.10329,204.25414 613.77599,196.91144 616.94647,191.35231 C 615.49325,195.14827 603.67881,196.93253 611.6184,193.23962 C 621.75211,191.54962 636.5768,204.62327 621.62009,210.01352 C 610.61517,217.57864 606.39819,199.00838 613.45683,200.56418 C 606.88827,211.41862 631.51144,202.74054 618.06993,200.09976 C 613.01631,199.61635 597.92807,195.70168 608.83759,190.62749 C 613.4641,186.09572 625.4053,189.27953 615.53044,194.48774 C 607.45253,201.99764 593.28685,214.1553 582.94895,204.6583 C 577.97338,194.02258 591.86707,182.95141 601.81435,183.10978 C 610.1861,191.29949 591.1702,196.95972 584.74083,199.35342 C 582.10804,201.44879 582.57706,196.55559 581.66077,195.27679 z "
         id="path2231" />
      <path
         style="opacity:1;fill:black;fill-opacity:1;stroke-width:1;stroke-miterlimit:4;stroke-dasharray:none"
         d="M 638.45618,176.23138 C 637.17942,186.98811 641.31678,199.28917 636.48885,209.08978 C 630.6188,201.54557 634.49918,189.166 633.10303,179.79803 C 631.8435,174.08166 635.11217,176.63771 638.45618,176.23138 z "
         id="path2233" />
      <path
         style="opacity:1;fill:black;fill-opacity:1;stroke-width:1;stroke-miterlimit:4;stroke-dasharray:none"
         d="M 626.10376,194.08673 C 632.58162,192.12522 650.4667,186.77699 651.30383,191.20719 C 644.10268,193.18448 631.90995,201.11633 626.96987,196.92936 C 626.68117,195.98182 626.39246,195.03427 626.10376,194.08673 z "
         id="path2235" />
      <path
         style="opacity:1;fill:black;fill-opacity:1;stroke-width:1;stroke-miterlimit:4;stroke-dasharray:none"
         d="M 694.65857,197.45805 C 690.04757,203.93906 694.26708,218.82665 687.22086,220.61011 C 680.70583,213.34884 682.78623,201.70095 681.15218,192.44459 C 677.27028,182.69936 686.29007,167.33462 695.77975,178.71403 C 705.07055,183.03956 692.68899,199.71918 690.78047,193.37396 C 699.10116,188.81395 687.7298,172.7959 685.89373,184.75675 C 686.56856,194.97396 687.19127,205.34832 689.69223,215.2421 C 682.30593,218.20278 688.49999,202.1099 689.64111,197.51904 C 689.72436,193.9991 692.98487,197.34015 694.65857,197.45805 z "
         id="path2237" />
      <path
         style="opacity:1;fill:black;fill-opacity:1;stroke-width:1;stroke-miterlimit:4;stroke-dasharray:none"
         d="M 709.39142,185.72029 C 706.78974,172.77699 691.58153,196.90247 704.34818,194.02902 C 708.42706,191.15808 710.91407,177.93796 716.06525,187.26065 C 716.89532,191.65629 722.10232,200.4087 714.00733,194.6824 C 710.4582,191.202 709.65148,184.56801 715.06494,186.65145 C 713.8077,194.84325 702.0485,205.70811 695.03336,195.37052 C 690.15942,185.66438 703.97785,170.64804 712.22849,180.26858 C 715.32364,184.04324 714.68968,188.32838 709.39142,185.72029 z "
         id="path2239" />
      <path
         style="opacity:1;fill:black;fill-opacity:1;stroke-width:1;stroke-miterlimit:4;stroke-dasharray:none"
         d="M 736.4743,180.51003 C 732.19546,181.72854 724.32239,180.07276 732.03741,182.60286 C 741.55162,186.80216 737.67771,204.00842 726.62855,198.45407 C 721.82654,193.23062 737.78515,196.48738 731.19514,189.27191 C 718.73171,183.82532 727.12795,172.23741 736.62689,176.32876 C 736.57603,177.72251 736.52517,179.11627 736.4743,180.51003 z "
         id="path2241" />
      <path
         style="opacity:1;fill:black;fill-opacity:1;stroke-width:1;stroke-miterlimit:4;stroke-dasharray:none"
         d="M 759.26324,172.58118 C 753.87671,174.94913 744.80106,177.83137 755.86623,179.05012 C 767.91305,178.92098 772.96269,194.68047 759.80568,198.20604 C 755.47367,202.81178 741.08414,200.2466 752.50515,195.85875 C 760.45739,194.47446 767.37032,185.00418 755.26506,184.41908 C 746.6529,184.5844 739.10043,173.65516 750.80422,170.87121 C 755.77597,168.41734 758.02993,165.95341 759.26324,172.58118 z "
         id="path2243" />
    </g>
    <g
       id="g2297"
       transform="matrix(0.350831,0,0,0.350831,71.47353,179.4976)"
       style="fill:black">
      <path
         style="opacity:1;fill:black;fill-opacity:1;stroke-width:1;stroke-miterlimit:4;stroke-dasharray:none"
         d="M 402.09854,416.19528 C 399.28833,425.99924 399.32708,436.3586 398.60776,446.46168 C 388.43025,446.68247 395.14598,433.0289 393.4595,426.7462 C 393.96616,415.99466 393.47774,404.21483 399.26675,394.7338 C 404.13846,384.21302 418.49533,392.15984 414.58951,402.15137 C 413.39334,411.95385 405.98415,419.16406 401.31997,427.38868 C 405.32793,433.47116 413.59217,434.87345 420.01899,437.63435 C 422.79952,439.10903 431.5139,440.13282 423.65358,442.07264 C 416.60157,442.9585 409.49615,439.52288 403.25664,436.45461 C 391.60182,431.79756 397.54608,420.149 403.91645,413.84647 C 407.0345,409.19089 413.57453,397.23357 406.29392,394.96512 C 399.8928,400.58587 399.93485,409.8913 399.10263,417.73098 C 398.60625,426.9038 398.71198,436.13465 398.75254,445.28069 C 388.60577,450.12894 395.71445,432.69235 394.92372,426.7028 C 396.08855,422.88649 394.70953,411.03164 400.94677,415.67097 C 401.33069,415.84574 401.71462,416.02051 402.09854,416.19528 z "
         id="path2245" />
      <path
         style="opacity:1;fill:black;fill-opacity:1;stroke-width:1;stroke-miterlimit:4;stroke-dasharray:none"
         d="M 428.75314,424.29596 C 433.76234,425.3975 443.92799,412.68837 435.47426,416.82423 C 426.72599,422.30685 427.6031,439.44449 439.91461,439.27593 C 443.28068,440.12756 456.81052,434.10564 448.3228,439.97142 C 442.09275,445.62583 432.27459,444.15321 427.07,437.99193 C 421.93981,430.8947 424.65669,420.37297 430.22942,414.30386 C 436.08876,406.55249 449.00082,412.33575 442.26002,421.48865 C 439.64787,425.04546 427.84239,433.62674 428.7786,424.53488 L 428.75314,424.29596 z "
         id="path2247" />
      <path
         style="opacity:1;fill:black;fill-opacity:1;stroke-width:1;stroke-miterlimit:4;stroke-dasharray:none"
         d="M 454.05081,418.88989 C 459.48099,412.4941 461.18748,400.26035 455.04262,394.63685 C 449.7052,401.90479 451.68824,411.81568 451.97957,420.28434 C 452.74324,430.92104 455.24577,441.34438 456.66595,451.86822 C 452.66907,463.4814 440.84371,447.51589 443.10117,440.58884 C 446.37807,431.78284 457.01099,429.81482 464.60287,425.98196 C 471.96271,422.67776 479.95667,420.46569 487.07239,416.88516 C 487.17055,422.5089 474.64802,421.28795 475.00901,429.99454 C 472.898,435.26448 476.25175,436.27454 478.06311,430.86486 C 479.04397,423.96237 488.89508,418.11649 489.54649,428.40193 C 488.08959,434.03547 501.9749,438.20345 491.00417,437.08923 C 485.61899,438.70835 482.09943,424.35011 484.7916,428.44939 C 484.61872,437.4284 470.25681,446.10288 469.17831,433.23369 C 469.30274,423.27824 477.9714,414.25509 488.12331,414.92653 C 496.97899,423.15452 477.83929,424.79516 472.78896,427.9221 C 464.69721,431.29456 456.17842,434.10604 449.0727,439.38885 C 443.20656,443.15013 456.83233,455.96131 451.07661,448.58587 C 448.63318,431.96567 444.4151,414.89451 447.68882,398.11091 C 448.7294,388.19037 462.88408,388.31195 463.00539,398.65722 C 465.40732,406.77165 462.89433,415.97689 457.56249,422.35874 C 456.39193,421.20246 455.22137,420.04618 454.05081,418.88989 z "
         id="path2249" />
      <path
         style="opacity:1;fill:black;fill-opacity:1;stroke-width:1;stroke-miterlimit:4;stroke-dasharray:none"
         d="M 508.43881,421.50278 C 503.65331,416.51289 495.1536,432.47375 502.76821,434.85816 C 511.21693,437.80984 520.48546,433.53436 527.25946,428.56368 C 524.14309,434.89722 515.21305,440.44396 507.38867,440.92367 C 499.93718,441.438 491.34807,434.54374 495.11758,426.61612 C 496.5253,420.00179 503.63081,412.12836 510.64964,416.74697 C 515.24049,420.11136 510.63317,419.77005 508.43881,421.50278 z "
         id="path2251" />
      <path
         style="opacity:1;fill:black;fill-opacity:1;stroke-width:1;stroke-miterlimit:4;stroke-dasharray:none"
         d="M 533.06415,397.86493 C 529.39041,408.75591 531.62143,420.37178 532.80568,431.4744 C 528.87095,437.12651 517.05457,426.0498 522.21899,420.94002 C 527.23606,415.94911 535.53559,415.88704 542.09884,413.74762 C 549.68312,410.86529 558.39165,417.06298 551.04829,424.16811 C 544.56916,429.94482 547.10428,440.25414 555.31475,431.95085 C 563.82915,425.92586 544.50829,419.71909 555.42616,416.79169 C 563.529,418.79644 576.372,422.09659 580.87643,429.06197 C 573.86619,433.25586 571.5856,415.23894 577.96274,411.06311 C 581.61496,407.08742 592.60039,402.03779 595.35046,407.5387 C 587.88928,409.49158 577.47259,414.75429 579.94405,424.09021 C 583.70513,429.83518 579.35056,434.31305 574.07843,429.31134 C 568.39335,424.24536 554.37203,425.29306 554.27225,416.95686 C 565.13991,419.79216 564.97152,435.13397 554.56517,438.74902 C 545.34051,444.60593 537.55223,434.08968 543.77803,425.98836 C 544.00274,421.4296 554.1235,416.87486 546.30783,418.49586 C 540.31554,419.21461 526.03784,420.65245 525.40816,425.14888 C 528.17233,426.93582 532.28803,432.47344 528.2724,431.05143 C 526.27768,419.40599 524.136,406.65096 529.04905,395.4407 C 530.38742,396.24878 531.72578,397.05685 533.06415,397.86493 z "
         id="path2253" />
    </g>
    <g
       id="g2336"
       transform="matrix(0.35083,-8.673081e-4,8.673081e-4,0.35083,38.07305,126.536)"
       style="fill:#32cd32">
      <path
         transform="translate(104.7007,43.73723)"
         d="M 742.36908,358.80486 C 741.9626,363.02268 741.22945,367.19595 740.52501,371.37072 C 739.38343,377.47908 737.91278,383.51876 736.50999,389.57059 C 735.04944,396.13395 733.23944,402.60228 731.33942,409.04806 C 729.42396,415.23648 726.70189,421.11025 723.98164,426.97209 C 721.14113,432.95577 718.01689,438.79441 714.86671,444.6182 C 711.94839,450.0059 708.70627,455.20336 705.44749,460.38814 C 702.58738,464.94666 699.4723,469.3319 696.32721,473.69511 C 693.54582,477.56634 690.46548,481.196 687.3297,484.77882 C 684.67026,487.76933 681.89721,490.65673 679.15031,493.5666 C 676.74184,496.20893 674.17467,498.69616 671.63205,501.20681 C 669.32926,503.36788 667.12741,505.62948 664.91835,507.88468 C 663.01969,510.03078 660.83988,511.8724 658.69768,513.75755 C 656.39533,515.87031 653.58146,516.47927 650.6875,517.28088 C 650.23665,517.33955 649.7858,517.39823 649.33494,517.45691 L 649.02021,516.79768 C 649.30962,516.50293 649.59904,516.20818 649.88845,515.91343 C 651.66285,513.81077 653.18935,511.52454 655.52475,509.96965 C 657.46662,508.12568 659.49361,506.36311 661.26568,504.34341 C 663.51331,502.05798 665.75293,499.76527 668.09196,497.57189 C 670.58669,495.11446 673.10577,492.68025 675.46922,490.09366 C 678.1856,487.22366 680.9155,484.36608 683.5604,481.42955 C 686.58236,477.9605 689.56324,474.45445 692.27795,470.73505 C 695.36609,466.46307 698.41998,462.16535 701.25169,457.71657 C 704.46187,452.62909 707.65696,447.52971 710.53021,442.24067 C 713.63633,436.50421 716.71528,430.75224 719.50758,424.85379 C 722.12728,419.20505 724.77223,413.55123 726.63387,407.59322 C 728.53231,401.26309 730.33639,394.90714 731.76334,388.44937 C 733.17758,382.49011 734.62677,376.53576 735.78892,370.52074 C 736.50507,366.4785 737.22767,362.43606 737.65244,358.34975 L 742.36908,358.80486 z "
         id="path2304"
         style="opacity:1;fill:#32cd32;fill-opacity:1;stroke-width:1;stroke-miterlimit:4;stroke-dasharray:none" />
      <path
         transform="translate(107.6204,40.29197)"
         d="M 657.8005,484.20916 C 656.43604,488.16487 655.40295,492.21866 654.36263,496.26716 C 653.29367,500.41396 652.64284,504.64605 651.93184,508.86322 C 651.52064,511.60806 651.17779,514.36268 650.81481,517.11361 C 650.75767,518.8265 650.19194,520.45465 649.88219,522.11612 C 649.70914,523.09428 648.66083,520.54918 648.05015,519.76571 C 651.77631,518.45607 655.62347,517.56451 659.45443,516.62941 C 664.45781,515.16243 669.41867,514.70301 674.57432,515.00122 C 675.74446,514.89153 676.63416,515.64658 677.66407,515.96925 L 677.57527,516.80184 C 676.66694,517.0606 675.7281,517.21092 674.85029,517.57812 C 670.19772,519.24491 665.46963,520.51243 660.61794,521.48278 C 656.93541,522.40443 653.22853,523.26991 649.66239,524.59214 C 646.85457,523.91505 644.29125,524.9866 645.11529,520.65175 C 645.38532,519.27489 645.88799,517.92106 645.93092,516.493 C 646.33875,513.69007 646.74927,510.88777 647.17931,508.08819 C 647.94214,503.74619 648.63916,499.38816 649.73938,495.11363 C 650.824,490.96075 651.93738,486.81624 653.2624,482.73164 L 657.8005,484.20916 z "
         id="path2306"
         style="opacity:1;fill:#32cd32;fill-opacity:1;stroke-width:1;stroke-miterlimit:4;stroke-dasharray:none" />
    </g>
    <g
       id="g2275"
       transform="matrix(0.346089,-5.748712e-2,5.748712e-2,0.346089,-7.222352,152.6043)"
       style="fill:#32cd32">
      <path
         transform="translate(82.86131,15.9416)"
         d="M 296.40484,381.26163 C 297.0948,385.17303 298.23331,388.98529 299.30287,392.80452 C 300.75468,397.93479 302.45191,402.99047 304.10734,408.05718 C 305.75846,413.40159 307.81026,418.60002 309.89322,423.78575 C 312.08217,429.03866 314.49843,434.19131 316.86274,439.36641 C 319.0892,444.27205 321.20248,449.22796 323.28662,454.19534 C 325.22637,458.81018 327.47301,463.2717 329.82504,467.68541 C 332.22747,471.95212 334.74121,476.1561 337.2326,480.37154 C 339.42183,484.38702 342.00077,488.15893 344.59201,491.91934 C 347.23768,495.69876 349.95877,499.42482 352.66957,503.15759 C 355.2559,506.91795 358.16351,510.4316 361.08362,513.93235 C 363.99915,517.45689 366.99645,520.91227 369.94203,524.4109 C 372.41902,527.49801 375.11133,530.39804 377.76732,533.32853 C 380.55677,536.39611 383.5687,539.24447 386.59032,542.07861 C 389.71076,544.94829 393.03924,547.57762 396.32578,550.25162 C 399.15396,551.86752 400.32803,554.52189 402.00856,557.01238 C 402.38582,557.3375 402.13476,557.74378 402.19786,558.10949 L 401.98387,558.91209 C 401.63984,558.9323 400.62828,559.45025 400.28545,559.01188 C 397.68254,557.65587 394.94133,556.80168 392.97512,554.32292 C 389.6151,551.57765 386.21426,548.87577 383.01752,545.93864 C 379.8918,543.0113 376.77439,540.07076 373.8874,536.90296 C 371.16984,533.90139 368.39963,530.94169 365.9027,527.7489 C 362.97147,524.25097 359.98026,520.80441 357.0724,517.28682 C 354.07919,513.69944 351.09754,510.10109 348.4668,506.23293 C 345.71685,502.48228 342.9831,498.72025 340.32346,494.90479 C 337.65622,491.03173 335.01587,487.14004 332.7711,482.99959 C 330.24905,478.73019 327.70558,474.47164 325.27549,470.14928 C 322.84479,465.57893 320.5064,460.96471 318.53775,456.17079 C 316.47742,451.25106 314.40249,446.33723 312.22791,441.46653 C 309.84388,436.23467 307.3916,431.03129 305.21286,425.70904 C 303.08336,420.41021 301.01167,415.0889 299.35601,409.61745 C 297.69638,404.47847 296.02564,399.34221 294.55297,394.14548 C 293.46138,390.15851 292.32074,386.17712 291.56736,382.10819 L 296.40484,381.26163 z "
         id="path2308"
         style="fill:#32cd32;fill-opacity:1;stroke-width:1;stroke-miterlimit:4;stroke-dasharray:none" />
      <path
         transform="translate(82.86131,15.9416)"
         d="M 281.44145,409.72044 C 281.91903,404.59931 283.31987,399.65348 284.6424,394.70597 C 286.14044,389.54837 287.70297,384.41 289.20865,379.25469 C 289.87366,376.48853 290.76593,373.78427 291.5762,371.06705 C 294.28624,367.47948 295.07427,369.52669 298.18457,370.2543 C 299.29511,371.8433 299.98431,373.67212 300.82758,375.40693 C 302.98958,379.38273 306.15404,382.6254 309.18333,385.93242 C 313.35173,389.71761 316.91766,393.80333 319.78565,398.61999 C 320.00365,398.58911 320.89131,401.19138 321.00042,401.44513 L 320.13697,402.16568 C 319.28867,401.62437 318.35636,401.21595 317.59206,400.54174 C 313.17254,397.24554 309.21153,393.49829 305.41674,389.49054 C 302.05687,385.79525 298.5602,382.16129 296.20008,377.7063 C 295.56167,376.31351 294.97542,374.89342 294.26585,373.53572 C 294.69259,373.40973 296.46373,373.94505 296.20191,372.96413 C 295.40771,375.50678 294.55288,378.05112 293.87073,380.63592 C 292.29021,385.74745 290.68482,390.85146 289.169,395.98276 C 287.89888,400.63467 286.53178,405.28334 286.08385,410.10731 L 281.44145,409.72044 z "
         id="path2310"
         style="fill:#32cd32;fill-opacity:1;stroke-width:1;stroke-miterlimit:4;stroke-dasharray:none" />
    </g>
    <g
       id="g2375"
       transform="matrix(0.307109,0,0,0.307109,320.3145,63.13615)">
      <g
         transform="translate(26.51791,0)"
         id="g2364">
        <g
           id="g2334">
          <path
             id="path2262"
             d="M -377.60681,210.21999 C -380.97268,219.40063 -371.961,232.59192 -379.48835,238.75362 C -376.94669,224.77279 -377.14607,210.5021 -375.20423,196.44828 C -366.73034,189.5156 -365.67171,214.9797 -358.27663,202.54867 C -356.95637,192.44779 -343.85277,187.37681 -343.52962,200.9072 C -341.05478,213.51422 -339.81686,226.53088 -339.31787,239.24502 C -343.01641,252.56492 -345.53957,228.63524 -345.21114,222.89599 C -346.17591,215.62156 -347.31269,197.86709 -350.76528,198.348 C -352.40063,211.10268 -368.74711,215.55086 -372.39328,201.42328 C -369.69391,191.90779 -371.66489,209.47718 -372.11829,213.47221 C -373.95297,221.9542 -370.71424,237.83714 -377.97348,241.39946 C -385.90962,234.88693 -381.60744,218.30281 -381.69835,209.87459 C -380.3345,209.98972 -378.97066,210.10485 -377.60681,210.21999 z "
             style="opacity:1;fill:black;fill-opacity:1;stroke-width:32;stroke-linejoin:round;stroke-miterlimit:4;stroke-dasharray:none;stroke-opacity:1" />
          <path
             transform="translate(0,4.5637)"
             id="path2264"
             d="M -321.88797,216.82794 C -334.32991,206.51305 -346.61182,232.10862 -331.84288,234.7424 C -325.18949,233.61613 -321.63052,214.02938 -318.83908,227.5322 C -317.8195,233.13313 -317.07381,246.71794 -322.59986,234.59377 C -325.69831,230.51188 -323.37066,217.15997 -318.89864,224.13149 C -318.67821,236.14623 -336.81455,246.82381 -342.20605,232.15831 C -347.97582,219.60991 -333.20382,204.68144 -320.85669,212.15963 C -317.27762,212.65104 -321.51206,215.4333 -321.88797,216.82794 z "
             style="opacity:1;fill:black;fill-opacity:1;stroke-width:32;stroke-linejoin:round;stroke-miterlimit:4;stroke-dasharray:none;stroke-opacity:1" />
          <path
             transform="translate(0,8.092351)"
             id="path2266"
             d="M -311.69064,208.38049 C -314.30773,204.00807 -312.7441,186.07094 -308.23444,197.52891 C -307.02546,210.27876 -307.57379,223.11806 -307.01707,235.9022 C -316.99064,229.4843 -303.56266,212.29876 -296.88949,206.00343 C -288.6642,199.55786 -285.6019,209.59137 -293.7692,213.38379 C -303.57504,219.32278 -298.81787,232.74852 -288.39896,232.61705 C -300.2206,242.55896 -310.87342,219.02526 -296.89934,214.2858 C -293.02809,210.7562 -287.11129,204.27757 -295.12973,210.74311 C -305.59058,216.29042 -300.73655,234.43608 -311.96485,236.29125 C -311.94368,223.037 -312.00938,209.77029 -312.76688,196.53865 C -308.3779,188.39148 -305.2245,210.91999 -311.69064,208.38049 z "
             style="opacity:1;fill:black;fill-opacity:1;stroke-width:32;stroke-linejoin:round;stroke-miterlimit:4;stroke-dasharray:none;stroke-opacity:1" />
          <path
             transform="translate(0,6.802613)"
             id="path2268"
             d="M -285.53366,222.05327 C -276.85225,227.34674 -258.95265,212.04605 -275.05252,211.87707 C -287.45049,216.31345 -284.27423,235.70131 -270.2727,234.10027 C -265.59964,233.33124 -256.0457,235.1235 -266.46492,236.72527 C -281.77329,243.97983 -295.79535,222.93535 -282.8921,211.92396 C -274.21579,198.08103 -253.91573,215.55 -269.24361,224.18417 C -272.80343,225.94825 -290.13116,230.70575 -285.53366,222.05327 z "
             style="opacity:1;fill:black;fill-opacity:1;stroke-width:32;stroke-linejoin:round;stroke-miterlimit:4;stroke-dasharray:none;stroke-opacity:1" />
        </g>
        <g
           id="g2340">
          <path
             transform="matrix(1,0,0,1.146333,-3.576716,-20.79153)"
             id="path2270"
             d="M -224.58322,198.79762 C -227.74821,191.33561 -222.03121,189.10781 -220.9375,197.0435 C -222.27119,208.14627 -216.47416,222.83954 -222.11491,231.77655 C -223.2813,218.53947 -229.57118,201.88977 -223.60071,190.2604 C -219.74364,187.35762 -218.64525,201.92542 -224.58322,198.79762 z "
             style="opacity:1;fill:black;fill-opacity:1;stroke-width:32;stroke-linejoin:round;stroke-miterlimit:4;stroke-dasharray:none;stroke-opacity:1" />
          <path
             transform="translate(0,12.7555)"
             id="path2272"
             d="M -241.20073,211.84859 C -228.74333,210.05589 -220.57841,198.75829 -216.97712,187.51799 C -206.14901,186.05265 -214.83528,205.01957 -212.65355,212.45784 C -213.03351,221.85083 -212.35825,220.16992 -207.31471,214.02721 C -198.00186,201.88749 -191.17914,219.53397 -192.06453,228.21193 C -195.99657,237.28732 -198.15662,220.80227 -199.35947,215.1348 C -203.17238,214.0969 -214.45167,232.5186 -217.03535,219.13818 C -216.9235,210.48239 -218.42875,192.74378 -214.75174,189.72316 C -211.75241,197.17281 -225.44702,211.87354 -235.037,214.79211 C -239.79711,216.55362 -241.2975,217.07293 -241.20073,211.84859 z "
             style="opacity:1;fill:black;fill-opacity:1;stroke-width:32;stroke-linejoin:round;stroke-miterlimit:4;stroke-dasharray:none;stroke-opacity:1" />
          <path
             transform="translate(0,11.56014)"
             id="path2274"
             d="M -186.71385,214.08354 C -180.91279,218.58866 -162.58488,208.70304 -171.28717,205.3029 C -182.95353,208.30731 -182.98352,226.65315 -170.28953,228.92157 C -165.62097,229.62737 -156.21253,232.86178 -166.70925,232.83536 C -180.6314,235.09728 -191.34942,217.08311 -180.9579,206.44107 C -175.57749,193.79445 -155.56934,204.39178 -167.71167,214.27598 C -169.90995,218.72058 -193.05357,223.50848 -186.71385,214.08354 z "
             style="opacity:1;fill:black;fill-opacity:1;stroke-width:32;stroke-linejoin:round;stroke-miterlimit:4;stroke-dasharray:none;stroke-opacity:1" />
        </g>
      </g>
      <g
         transform="translate(-5.587454,0)"
         id="g2345">
        <path
           style="opacity:1;fill:black;fill-opacity:1;stroke-width:32;stroke-linejoin:round;stroke-miterlimit:4;stroke-dasharray:none;stroke-opacity:1"
           d="M -344.62701,289.0571 C -352.89255,283.28685 -367.78308,288.70404 -366.60079,299.63388 C -356.2343,310.00442 -344.72893,289.5323 -345.56326,279.37375 C -343.30108,272.95387 -348.68194,259.96281 -344.34453,257.49004 C -341.2254,267.41875 -342.32138,278.4515 -340.04529,288.72999 C -339.05851,293.07958 -334.84129,314.05433 -341.66248,301.82291 C -346.01111,289.27975 -346.39526,275.689 -347.62903,262.54274 C -349.82836,252.71874 -339.87314,253.4048 -341.1063,262.403 C -339.92641,275.91588 -340.1163,291.65582 -349.84712,302.21032 C -358.24413,313.84213 -378.73736,304.16675 -369.07107,291.03829 C -366.08462,281.23863 -343.47541,278.83301 -343.71774,287.63388 C -344.02083,288.10829 -344.32392,288.58269 -344.62701,289.0571 z "
           id="path2276" />
        <path
           style="opacity:1;fill:black;fill-opacity:1;stroke-width:32;stroke-linejoin:round;stroke-miterlimit:4;stroke-dasharray:none;stroke-opacity:1"
           d="M -325.41687,286.26215 C -324.1607,290.22526 -318.1952,310.43972 -325.81979,299.92072 C -326.06353,295.40343 -333.75784,286.17411 -325.41687,286.26215 z "
           id="path2278"
           transform="translate(0,2.448434)" />
        <path
           style="opacity:1;fill:black;fill-opacity:1;stroke-width:32;stroke-linejoin:round;stroke-miterlimit:4;stroke-dasharray:none;stroke-opacity:1"
           d="M -299.34363,287.78656 C -307.77884,272.0378 -325.855,294.71752 -310.68615,299.61179 C -302.8438,301.44221 -301.88355,281.06267 -297.05083,293.64032 C -297.3351,298.74667 -294.86841,310.49159 -300.43453,300.33 C -306.57045,294.77715 -293.35091,284.29556 -298.73781,295.53029 C -302.32222,308.39441 -322.61295,306.0815 -321.10411,291.8336 C -322.17396,277.21811 -301.63168,273.34033 -295.4883,285.67451 C -296.77341,286.37853 -298.05852,287.08254 -299.34363,287.78656 z "
           id="path2280"
           transform="translate(0,1.027919)" />
        <path
           style="opacity:1;fill:black;fill-opacity:1;stroke-width:32;stroke-linejoin:round;stroke-miterlimit:4;stroke-dasharray:none;stroke-opacity:1"
           d="M -277.5101,290.0752 C -286.56152,274.49117 -296.16058,301.85595 -282.29296,299.38681 C -277.06891,296.16745 -282.32503,280.84549 -273.94089,288.30875 C -270.45492,298.47597 -266.09013,310.8904 -272.12687,320.88969 C -275.79418,331.49914 -296.59716,321.71321 -291.2515,319.16065 C -277.5674,329.42512 -268.7396,308.4487 -276.09891,297.60267 C -279.41776,294.58665 -279.82793,282.3863 -274.84177,287.6638 C -270.31075,298.69679 -286.12357,312.74156 -292.56724,298.85814 C -300.0993,286.93456 -283.01941,273.3059 -274.98913,286.47418 C -272.00706,288.50212 -276.53647,288.98002 -277.5101,290.0752 z "
           id="path2282" />
        <path
           style="opacity:1;fill:black;fill-opacity:1;stroke-width:32;stroke-linejoin:round;stroke-miterlimit:4;stroke-dasharray:none;stroke-opacity:1"
           d="M -263.73157,285.09241 C -262.78775,290.00766 -267.04471,300.42352 -265.98805,289.99791 C -262.19573,279.25633 -246.59928,278.46745 -244.62023,290.73518 C -240.65516,296.7341 -247.92272,304.98959 -248.68311,294.7298 C -248.46905,284.06144 -259.99977,284.16858 -262.29538,293.74469 C -269.06462,306.59799 -273.12504,281.36545 -265.0687,284.81913 C -264.62299,284.91022 -264.17728,285.00131 -263.73157,285.09241 z "
           id="path2284"
           transform="translate(0,5.778374)" />
        <path
           style="opacity:1;fill:black;fill-opacity:1;stroke-width:32;stroke-linejoin:round;stroke-miterlimit:4;stroke-dasharray:none;stroke-opacity:1"
           d="M -228.85033,287.38831 C -236.01848,299.23682 -219.51807,301.81607 -216.57259,291.13328 C -211.17912,280.84009 -225.94436,283.15626 -230.59496,284.91107 C -225.90994,271.34642 -203.12941,281.09809 -212.4489,293.77385 C -215.94001,305.90178 -237.60299,306.58055 -234.81918,291.50781 C -234.33657,285.97928 -233.77013,284.18439 -228.85033,287.38831 z "
           id="path2286"
           transform="translate(-5.620554,3.029987)" />
        <path
           style="opacity:1;fill:black;fill-opacity:1;stroke-width:32;stroke-linejoin:round;stroke-miterlimit:4;stroke-dasharray:none;stroke-opacity:1"
           d="M -202.08965,279.59155 C -207.6837,280.99968 -214.27089,278.38655 -205.33113,280.16506 C -193.21714,280.20951 -181.87004,294.66456 -198.1545,299.70951 C -203.46543,304.02859 -218.01673,300.72369 -209.42874,295.00818 C -209.83284,301.79828 -183.64806,290.06047 -200.01816,287.03464 C -206.61799,286.67005 -221.03971,278.81602 -208.26206,275.19315 C -203.40342,274.04171 -199.35524,273.68806 -202.08965,279.59155 z "
           id="path2288"
           transform="translate(-5.620554,4.195105)" />
        <path
           style="opacity:1;fill:black;fill-opacity:1;stroke-width:32;stroke-linejoin:round;stroke-miterlimit:4;stroke-dasharray:none;stroke-opacity:1"
           d="M -185.26765,260.48743 C -184.82482,273.26041 -176.01963,288.963 -181.69581,300.01793 C -190.15885,295.94897 -195.97559,279.4708 -184.75591,274.73808 C -172.1864,267.31094 -160.87984,282.21104 -164.80152,294.21021 C -172.11814,310.02141 -164.60644,277.86374 -176.3961,277.85916 C -190.83771,275.78086 -185.05588,291.02279 -182.59041,297.51337 C -185.4427,287.24225 -189.27273,270.97688 -188.3975,261.21592 C -187.35422,260.97309 -186.31094,260.73026 -185.26765,260.48743 z "
           id="path2290"
           transform="translate(-5.620554,5.861835)" />
        <path
           style="opacity:1;fill:black;fill-opacity:1;stroke-width:32;stroke-linejoin:round;stroke-miterlimit:4;stroke-dasharray:none;stroke-opacity:1"
           d="M -142.52188,275.42688 C -152.35468,279.08402 -162.36603,297.44842 -144.69885,295.63785 C -139.27557,296.62016 -124.06145,289.90343 -136.45887,297.58691 C -149.36807,307.27297 -169.80214,292.10582 -154.58724,279.62784 C -150.91413,276.57005 -145.05537,266.57153 -142.52188,275.42688 z "
           id="path2294"
           transform="translate(-5.620554,5.21519)" />
        <path
           style="opacity:1;fill:black;fill-opacity:1;stroke-width:32;stroke-linejoin:round;stroke-miterlimit:4;stroke-dasharray:none;stroke-opacity:1"
           d="M -112.7388,275.85428 C -119.61886,276.64388 -135.26299,285.18558 -120.43696,286.58537 C -111.98878,285.84801 -93.969821,295.93526 -109.17736,301.31818 C -116.07373,303.16788 -127.19481,305.40436 -131.79076,299.8559 C -125.4355,298.95878 -109.2579,298.30831 -108.89107,294.88552 C -117.27797,292.51002 -142.49691,288.45754 -127.96638,276.98097 C -123.38109,275.66828 -112.08063,265.7208 -112.7388,275.85428 z "
           id="path2296"
           transform="translate(-5.620554,2.510959)" />
        <path
           style="opacity:1;fill:black;fill-opacity:1;stroke-width:32;stroke-linejoin:round;stroke-miterlimit:4;stroke-dasharray:none;stroke-opacity:1"
           d="M -327.19394,269.24197 C -326.592,274.75863 -330.63578,284.7602 -332.22536,273.36553 C -333.34236,266.61536 -331.28468,268.68091 -327.19394,269.24197 z "
           id="path2298"
           transform="translate(1.021919,3.576716)" />
        <path
           style="opacity:1;fill:black;fill-opacity:1;stroke-width:32;stroke-linejoin:round;stroke-miterlimit:4;stroke-dasharray:none;stroke-opacity:1"
           d="M -163.51466,261.67844 C -162.82021,267.64559 -169.40582,277.02897 -168.64503,265.45907 C -169.33721,260.06887 -167.07288,260.99554 -163.51466,261.67844 z "
           id="path2300"
           transform="translate(-5.620554,6.598635)" />
      </g>
      <g
         transform="translate(50.48314,0)"
         id="g2359">
        <path
           style="opacity:1;fill:black;fill-opacity:1;stroke-width:32;stroke-linejoin:round;stroke-miterlimit:4;stroke-dasharray:none;stroke-opacity:1"
           d="M -329.10413,355.24478 C -338.94352,351.73831 -357.78236,361.87996 -350.60207,372.7102 C -341.76667,377.33182 -331.67697,370.06436 -324.43301,368.19821 C -331.99074,375.92066 -344.44048,382.50864 -354.61232,375.46218 C -364.27868,363.47309 -346.16388,349.04693 -333.92668,350.16626 C -328.76712,350.29116 -326.38291,350.2045 -329.10413,355.24478 z "
           id="path2302"
           transform="translate(-1.021919,-1.021919)" />
        <path
           style="opacity:1;fill:black;fill-opacity:1;stroke-width:32;stroke-linejoin:round;stroke-miterlimit:4;stroke-dasharray:none;stroke-opacity:1"
           d="M -321.06009,339.36246 C -320.85465,351.75448 -318.41349,364.21705 -318.70532,376.49991 C -327.57756,367.91048 -323.74362,351.40015 -325.7567,339.62158 C -324.19116,339.53521 -322.62563,339.44883 -321.06009,339.36246 z "
           id="path2305"
           transform="matrix(1,0,0,1.123827,0,-46.62102)" />
        <path
           style="opacity:1;fill:black;fill-opacity:1;stroke-width:32;stroke-linejoin:round;stroke-miterlimit:4;stroke-dasharray:none;stroke-opacity:1"
           d="M -311.88303,360.07883 C -305.19036,362.49406 -292.28034,347.63657 -304.63129,352.65739 C -315.62894,360.06226 -307.5046,376.86448 -294.67586,372.35337 C -286.40495,373.00888 -263.18286,359.68058 -279.28849,355.14401 C -291.67658,356.59603 -280.42465,382.23711 -277.83986,365.08817 C -275.13545,352.86974 -263.48121,378.49067 -259.24231,361.96774 C -257.28434,355.93389 -252.48678,365.67997 -251.6607,370.45744 C -252.43592,375.15955 -252.51999,358.06525 -248.69164,354.80545 C -246.53827,347.74463 -224.79099,348.42995 -239.14574,353.06197 C -250.52512,356.49989 -243.28871,372.37931 -252.14269,376.58531 C -256.91495,374.05114 -262.79711,358.66772 -254.72809,361.67998 C -256.44235,373.7405 -275.40274,375.05149 -275.12908,363.73486 C -267.67868,362.21255 -278.9433,385.13432 -286.41903,373.80551 C -294.12771,365.75388 -288.18506,347.01429 -275.67308,351.44078 C -260.43592,356.57564 -275.56157,372.27571 -285.27704,373.85964 C -297.50145,381.78234 -320.43276,374.6868 -313.91016,357.3735 C -312.92003,344.91333 -288.11961,342.85646 -296.1062,357.37342 C -298.51692,360.59444 -312.97263,369.24951 -311.88303,360.07883 z "
           id="path2307" />
      </g>
    </g>
    <g
       id="g3037"
       transform="translate(14.813,-1.77756)">
      <path
         d="M 289.4909,160.2103 C 290.70248,160.80348 291.87667,161.4652 293.04896,162.13092 C 294.71879,163.10732 296.32353,164.18708 297.92564,165.2689 C 299.59404,166.3793 301.09498,167.69984 302.57308,169.04444 C 303.96216,170.37055 305.22255,171.82029 306.48458,173.26503 C 307.72032,174.70272 308.88402,176.19937 310.05033,177.69312 C 311.2036,179.19456 312.36141,180.69251 313.51425,182.19428 C 314.59871,183.58411 315.60861,185.02637 316.59176,186.48837 C 317.38876,187.67391 318.05131,188.93767 318.73039,190.19126 C 319.31397,191.28058 319.71219,192.44821 320.13804,193.60319 C 320.46804,194.62647 320.80041,195.64889 321.13667,196.67011 C 321.44993,197.58645 321.78279,198.496 322.11066,199.40719 C 322.38124,200.09795 322.56799,200.81579 322.78964,201.52201 C 322.91532,201.98543 323.04568,202.44754 323.17371,202.91033 C 323.31553,203.36571 323.4346,203.82771 323.56504,204.28636 C 323.66843,204.73511 323.84328,205.16216 323.98229,205.59972 C 324.17093,206.0882 324.23747,206.60997 324.36467,207.11357 C 324.4775,207.3706 324.20144,207.65073 324.11983,207.91931 C 323.9433,207.9334 323.76678,207.9475 323.59025,207.96159 L 323.93228,208.03057 C 323.74039,208.12084 323.5485,208.21111 323.35662,208.30138 C 323.21345,208.0084 322.77407,207.83712 322.90929,207.38595 C 322.79056,206.9594 322.71309,206.51868 322.55223,206.10317 C 322.39983,205.62265 322.20837,205.15351 322.09479,204.66084 C 321.97059,204.21671 321.86476,203.76671 321.72197,203.32761 C 321.59254,202.85682 321.45833,202.38738 321.3337,201.91527 C 321.12426,201.24501 320.95135,200.56216 320.69191,199.90763 C 320.36253,198.98982 320.03347,198.07188 319.70818,197.15261 C 319.37443,196.13483 319.04393,195.11609 318.71695,194.0961 C 318.31747,193.00731 317.94426,191.90661 317.39678,190.8791 C 316.7454,189.67002 316.10905,188.45176 315.34503,187.30733 C 314.38428,185.87212 313.39662,184.45659 312.33392,183.09381 C 311.18303,181.59427 310.02746,180.0983 308.88457,178.59261 C 307.73963,177.11588 306.59687,175.63612 305.38342,174.21448 C 304.15924,172.80342 302.9403,171.38372 301.5898,170.08981 C 300.17061,168.78728 298.72853,167.51008 297.1274,166.42936 C 295.5557,165.36227 293.97855,164.30175 292.34329,163.33305 C 291.19999,162.67179 290.05403,162.01538 288.86582,161.43643 L 289.4909,160.2103 z "
         id="path2418"
         style="fill:red;fill-opacity:1;stroke-width:32;stroke-linejoin:round;stroke-miterlimit:4;stroke-dasharray:none;stroke-opacity:1" />
      <path
         d="M 315.47043,199.67513 C 315.28723,199.10942 315.05645,198.56118 314.8495,198.00429 C 314.43455,196.74738 316.30929,197.78522 316.42137,197.78463 C 317.03512,198.69959 317.76092,199.52919 318.45698,200.38031 C 319.54191,201.65139 320.69728,202.85913 321.85163,204.06656 C 322.63704,204.91829 323.51326,205.67473 324.36598,206.4556 C 326.24875,207.44701 324.1145,207.2116 323.98543,207.59964 C 323.93212,206.62126 323.93318,205.63509 323.92002,204.65393 C 323.89642,202.68802 324.01663,200.7272 324.15503,198.76774 C 324.16812,197.52319 324.4751,196.35476 324.81082,195.17916 C 324.79967,194.39396 325.82202,194.80377 325.98591,194.74293 L 325.94881,195.05081 C 326.04461,195.30414 326.51271,195.30043 326.20512,195.72862 C 325.95514,196.76801 325.63061,197.79342 325.6363,198.88712 C 325.49475,200.7991 325.37271,202.71266 325.41027,204.63164 C 325.43466,205.73783 325.49413,206.84665 325.47256,207.95173 C 322.84257,208.65443 324.89709,208.28775 323.35247,207.5785 C 322.4753,206.77024 321.5948,205.965 320.77886,205.09339 C 319.60882,203.8562 318.42971,202.62578 317.32999,201.32465 C 316.60475,200.43959 315.86061,199.56564 315.2406,198.60095 C 315.48391,198.25681 315.89995,197.28772 316.08967,197.66407 C 316.19585,198.2486 316.27714,198.83786 316.40824,199.41786 L 315.47043,199.67513 z "
         id="path2420"
         style="fill:red;fill-opacity:1;stroke-width:32;stroke-linejoin:round;stroke-miterlimit:4;stroke-dasharray:none;stroke-opacity:1" />
    </g>
    <g
       id="g3041"
       transform="translate(-14.813,-3.555119)">
      <path
         d="M 164.52897,202.87649 C 164.7326,201.16803 165.43921,199.60421 166.08953,198.03273 C 167.17446,195.63858 168.489,193.36045 169.79396,191.08241 C 171.18513,188.72144 172.77198,186.4864 174.35272,184.25124 C 175.76307,182.27194 177.25575,180.35436 178.76596,178.45126 C 180.11868,176.76755 181.63223,175.22868 183.16159,173.70849 C 184.69199,172.23048 186.32627,170.86751 187.952,169.49736 C 189.38973,168.30201 190.83005,167.10984 192.2663,165.91273 C 193.26003,164.9985 194.38035,164.26618 195.49896,163.52284 C 196.44421,162.96289 197.43781,162.49314 198.42413,162.01213 C 198.90799,161.7276 199.40171,161.45858 199.88682,161.18388 C 200.67234,160.81095 200.5136,162.05529 200.51998,162.06416 L 200.17749,161.92646 C 200.19963,161.97844 200.03857,162.42324 200.42858,162.51588 C 200.01824,162.76831 199.57171,163.14935 199.08739,163.34095 C 198.13814,163.80071 197.18176,164.24835 196.27225,164.78471 C 195.20841,165.48445 194.14868,166.18057 193.2024,167.04253 C 191.76215,168.23402 190.31782,169.42052 188.87682,170.61106 C 187.2797,171.95698 185.6776,173.29883 184.16706,174.74308 C 182.67754,176.22238 181.20268,177.7193 179.88289,179.35599 C 178.38665,181.23633 176.90757,183.1309 175.51027,185.08692 C 173.94867,187.27988 172.37757,189.47074 171.00775,191.79152 C 169.72666,194.02029 168.43648,196.24895 167.37097,198.59205 C 166.77787,200.02921 166.11634,201.45813 165.94432,203.02252 L 164.52897,202.87649 z "
         id="path2428"
         style="fill:red;fill-opacity:1;stroke-width:32;stroke-linejoin:round;stroke-miterlimit:4;stroke-dasharray:none;stroke-opacity:1" />
      <path
         d="M 184.87331,163.57618 C 186.34432,163.01315 187.88356,162.66981 189.41074,162.3009 C 191.37245,161.8509 193.35268,161.48938 195.33161,161.12516 C 196.73893,160.86585 198.16012,160.71394 199.58136,160.56102 C 200.20313,160.44534 200.84143,160.48441 201.45818,160.45421 C 202.34471,161.43638 201.83734,161.86523 201.33832,162.95788 C 200.60046,164.47308 199.90793,166.00933 199.2162,167.54587 C 198.48794,169.18543 197.7993,170.84206 197.11231,172.49918 C 196.91163,173.26388 196.44032,173.91046 196.08429,174.5896 C 195.95609,174.67571 195.79798,174.64511 195.65855,174.67214 L 195.15448,174.5001 C 195.08429,174.35741 194.91825,174.24219 194.93567,174.05528 C 195.22639,173.36416 195.48685,172.64202 195.81369,171.95966 C 196.52211,170.29954 197.22346,168.63631 197.95664,166.98685 C 198.65174,165.43194 199.34369,163.87521 200.0829,162.34057 C 200.69026,162.04747 200.34275,160.55357 201.13764,161.83158 C 200.99293,161.84174 200.07455,161.92139 199.69345,161.93303 C 198.31304,162.06415 196.93286,162.19615 195.56725,162.44942 C 193.61023,162.79972 191.65397,163.15622 189.71505,163.59847 C 188.2614,163.95373 186.79067,164.27568 185.39789,164.83517 L 184.87331,163.57618 z "
         id="path2432"
         style="fill:red;fill-opacity:1;stroke-width:32;stroke-linejoin:round;stroke-miterlimit:4;stroke-dasharray:none;stroke-opacity:1" />
    </g>
  </g>
</svg>
