<?xml version="1.0" encoding="UTF-8" standalone="no"?>
<!-- Created with Inkscape (http://www.inkscape.org/) -->
<svg
   xmlns:dc="http://purl.org/dc/elements/1.1/"
   xmlns:cc="http://creativecommons.org/ns#"
   xmlns:rdf="http://www.w3.org/1999/02/22-rdf-syntax-ns#"
   xmlns:svg="http://www.w3.org/2000/svg"
   xmlns="http://www.w3.org/2000/svg"
   xmlns:sodipodi="http://sodipodi.sourceforge.net/DTD/sodipodi-0.dtd"
   xmlns:inkscape="http://www.inkscape.org/namespaces/inkscape"
   width="199.68837"
   height="157.2328"
   id="svg1880"
   sodipodi:version="0.32"
   inkscape:version="0.46"
   sodipodi:docbase="/home/nat/projects/mock-objects-book/docbook/src/figures"
   sodipodi:docname="tdd-simple.svg"
   inkscape:output_extension="org.inkscape.output.svg.inkscape"
   version="1.0">
  <defs
     id="defs1882">
    <inkscape:perspective
       sodipodi:type="inkscape:persp3d"
       inkscape:vp_x="0 : 144.86201 : 1"
       inkscape:vp_y="0 : 1000 : 0"
       inkscape:vp_z="354.33075 : 144.86201 : 1"
       inkscape:persp3d-origin="177.16537 : 96.574677 : 1"
       id="perspective63" />
  </defs>
  <sodipodi:namedview
     id="base"
     pagecolor="#ffffff"
     bordercolor="#666666"
     borderopacity="1.0"
     inkscape:pageopacity="0.0"
     inkscape:pageshadow="2"
     inkscape:zoom="1.7188771"
     inkscape:cx="176.74369"
     inkscape:cy="130.57157"
     inkscape:current-layer="layer1"
     inkscape:document-units="px"
     inkscape:window-width="768"
     inkscape:window-height="719"
     inkscape:window-x="128"
     inkscape:window-y="25"
     width="744.09449px"
     height="1052.3622px"
     showgrid="false" />
  <metadata
     id="metadata1885">
    <rdf:RDF>
      <cc:Work
         rdf:about="">
        <dc:format>image/svg+xml</dc:format>
        <dc:type
           rdf:resource="http://purl.org/dc/dcmitype/StillImage" />
      </cc:Work>
    </rdf:RDF>
  </metadata>
  <g
     inkscape:label="Layer 1"
     id="layer1"
     inkscape:groupmode="layer"
     transform="translate(-136.42157,-82.265551)">
    <g
       id="g2463"
       transform="matrix(0.7393588,0,0,0.7393588,35.557079,21.441791)">
      <g
         transform="translate(-10,0)"
         id="g2436">
        <g
           id="g2512"
           transform="translate(-1.134237,0)">
          <path
             transform="matrix(0.395063,0,0,0.395063,109.70587,84.690514)"
             d="M 128.81816,164.7182 C 130.55207,160.91905 130.95094,156.92032 131.205,152.82627 C 131.55475,149.39673 129.75142,147.05257 128.36111,144.35955 C 128.87751,144.59385 128.00294,146.92031 127.84038,148.08257 C 126.88043,154.91802 127.36184,161.85279 127.77012,168.71359 C 128.3733,176.27399 129.12922,183.82128 129.79871,191.37597 C 130.78294,195.44486 129.87146,198.1009 128.3332,201.45146 C 123.93035,201.85822 123.18408,199.39457 120.99201,195.98482 C 118.94111,191.77943 119.48218,188.4863 120.88135,184.28403 C 123.94682,179.4343 128.97437,176.85117 133.77871,174.04161 C 138.88045,171.23807 144.27959,169.06326 149.68324,166.9288 C 157.37028,163.54136 151.4609,166.15577 155.33821,169.09596 C 153.15008,169.26938 151.32406,170.49009 149.36094,171.28525 C 146.12291,172.92879 144.79335,175.74367 143.10808,178.67775 C 141.53398,181.19436 144.16626,180.94446 144.32081,181.27552 C 147.73409,180.461 149.77121,177.83442 152.19875,175.57128 C 154.25842,173.54898 155.03812,170.90082 156.09028,168.36915 C 161.67279,169.68865 160.66538,170.18492 160.33281,174.78991 C 160.29438,177.6579 161.02469,180.43055 161.55539,183.21793 C 161.34339,183.47992 162.52801,184.66911 162.58781,184.75835 L 162.26895,185.42924 C 162.16557,185.39635 159.53228,185.13986 159.68087,184.60574 C 157.3504,181.52415 155.35403,179.12239 155.52338,174.8237 C 155.72602,169.58525 154.83515,167.07037 160.85434,169.58248 C 159.38682,172.79541 158.30875,176.1731 155.63805,178.7229 C 152.21991,182.09311 148.99848,185.35842 143.97011,185.89945 C 139.00619,184.09725 137.83398,182.38742 138.91886,176.93276 C 140.98226,172.93766 143.1754,169.55345 147.28979,167.33731 C 149.95083,166.21802 152.49416,164.77069 155.47447,164.68962 C 157.58737,170.51987 156.03526,169.05591 151.13115,170.77413 C 145.88332,172.77354 140.65911,174.85008 135.70167,177.51276 C 131.59424,179.88763 127.25525,182.04123 124.38155,185.95578 C 123.84101,188.9403 122.42926,191.11658 124.35794,194.21263 C 125.32476,195.61819 127.465,197.43497 125.7043,198.19773 C 125.60232,196.04847 125.66285,193.8853 125.39836,191.74994 C 124.73747,184.15966 124.01126,176.57462 123.4495,168.97626 C 122.99776,161.69627 122.52851,154.33795 123.61205,147.091 C 125.18787,142.20716 126.10747,139.59077 131.43217,141.39021 C 133.6186,145.07381 135.63364,148.32222 135.2643,152.95596 C 134.83418,157.63447 134.30203,162.16692 131.86902,166.3264 L 128.81816,164.7182 z"
             id="path2173"
             style="fill:#000000;fill-opacity:1;stroke-width:1;stroke-miterlimit:4;stroke-dasharray:none" />
          <path
             transform="matrix(0.395063,0,0,0.395063,109.70587,84.690514)"
             d="M 176.27156,171.4714 C 176.86983,174.93726 177.04499,178.44632 177.2836,181.94285 C 177.4248,183.19058 176.75089,184.33423 176.49648,185.47629 L 175.99383,185.74025 C 175.30901,184.77195 173.75573,184.00608 173.69971,182.49651 C 172.97479,179.0428 172.10407,175.60289 171.99512,172.03937 L 176.27156,171.4714 z"
             id="path2175"
             style="fill:#000000;fill-opacity:1;stroke-width:1;stroke-miterlimit:4;stroke-dasharray:none" />
          <path
             transform="matrix(0.395063,0,0,0.395063,109.70587,84.690514)"
             d="M 181.62506,140.81743 C 183.5449,145.95193 184.43984,151.37566 185.46332,156.73654 C 186.67146,164.00308 187.66844,171.30236 188.70436,178.59475 C 189.1773,181.44791 189.11583,184.34726 189.19262,187.22916 L 188.51435,187.66282 C 186.65058,185.11182 184.71122,182.79797 184.42732,179.30639 C 183.10554,172.07711 181.95248,164.82367 180.87279,157.55351 C 179.93423,152.43867 179.01416,147.31908 177.68846,142.28584 L 181.62506,140.81743 z"
             id="path2177"
             style="fill:#000000;fill-opacity:1;stroke-width:1;stroke-miterlimit:4;stroke-dasharray:none" />
          <path
             transform="matrix(0.395063,0,0,0.395063,109.70587,84.690514)"
             d="M 196.91718,172.91104 C 197.48493,175.90094 197.52478,178.94576 197.66738,181.97402 C 197.88247,183.06191 197.26307,184.03312 197.06474,185.04321 L 196.35765,185.47516 C 195.69884,184.57172 194.09241,183.9652 194.16933,182.47423 C 193.60867,179.51909 192.99258,176.57648 192.82333,173.55744 L 196.91718,172.91104 z"
             id="path2179"
             style="fill:#000000;fill-opacity:1;stroke-width:1;stroke-miterlimit:4;stroke-dasharray:none" />
          <path
             transform="matrix(0.395063,0,0,0.395063,109.70587,84.690514)"
             d="M 202.30042,169.13682 C 203.39756,172.03176 204.467,174.93762 205.54946,177.83767 C 207.81679,180.2019 204.91781,178.09297 204.2009,178.38274 C 205.36671,175.56321 207.02074,173.02184 208.56255,170.41575 C 211.72441,166.39394 213.84213,167.34862 218.07639,167.92175 C 221.23519,170.18231 222.32013,173.59028 223.77777,176.97751 C 224.39631,179.10587 224.66359,181.34455 225.00674,183.511 L 224.48734,184.2363 C 222.34968,182.63001 220.02718,181.87189 219.27396,178.74432 C 218.19397,176.54692 217.32435,174.19425 215.5273,172.45344 C 215.245,172.54477 212.79587,171.2085 212.73222,173.3577 C 211.15735,175.9078 209.57396,178.43657 208.33677,181.18688 C 204.27451,182.56171 203.77079,184.30803 201.11756,179.52614 C 200.08253,176.63251 199.06051,173.73381 198.0058,170.84739 L 202.30042,169.13682 z"
             id="path2181"
             style="fill:#000000;fill-opacity:1;stroke-width:1;stroke-miterlimit:4;stroke-dasharray:none" />
          <path
             transform="matrix(0.395063,0,0,0.395063,109.70587,84.690514)"
             d="M 242.11413,168.65339 C 239.6944,166.66283 238.69089,168.79919 236.69532,169.2746 C 234.31459,171.72388 235.0069,174.42706 234.76194,177.33981 C 235.10145,179.40316 236.78041,177.37764 237.61637,177.3933 C 240.19567,176.1028 240.51616,173.73822 241.62185,171.47211 C 245.8236,167.50345 233.36097,167.25316 246.83687,167.76678 C 247.70991,171.60096 248.82659,175.374 249.89175,179.15777 C 251.72311,184.46118 252.16382,189.7097 251.80445,195.21015 C 249.32514,201.83865 244.97945,201.98436 238.75048,201.50788 C 234.18436,200.2543 231.22681,196.95394 227.89197,193.88772 L 228.46741,193.16971 C 231.9475,195.02159 235.18762,197.15358 239.26991,197.44946 C 242.74918,197.08954 244.80053,197.69853 246.69257,194.37227 C 246.72858,189.68233 246.72404,185.07671 244.98541,180.52169 C 243.91203,176.6744 242.81196,172.83328 241.84315,168.95792 C 248.51821,167.96282 246.83816,166.96874 246.5127,172.78307 C 244.80082,176.56475 243.67771,179.92343 239.61305,181.93215 C 234.67379,182.47492 232.47001,183.487 230.09034,178.07509 C 230.29766,173.37456 230.05942,169.33913 233.81899,165.69757 C 238.01475,163.40054 240.61811,162.56904 244.86467,165.50035 L 242.11413,168.65339 z"
             id="path2183"
             style="fill:#000000;fill-opacity:1;stroke-width:1;stroke-miterlimit:4;stroke-dasharray:none" />
          <path
             transform="matrix(0.395063,0,0,0.395063,109.70587,84.690514)"
             d="M 175.22035,156.21459 C 175.49797,158.22942 174.87136,160.27348 174.66072,162.16009 C 173.8598,161.33113 173.42445,162.36987 173.26676,162.39663 L 173.22887,163.10661 C 172.82308,162.98711 170.56665,164.18961 170.47636,162.29603 C 170.21809,160.32836 169.39293,158.20676 169.84722,156.07682 L 175.22035,156.21459 z"
             id="path2185"
             style="fill:#000000;fill-opacity:1;stroke-width:1;stroke-miterlimit:4;stroke-dasharray:none" />
          <path
             transform="matrix(0.395063,0,0,0.395063,109.70587,84.690514)"
             d="M 196.83411,156.22926 C 197.48685,158.53249 196.06012,160.22264 195.51897,162.19414 C 195.41124,162.35953 195.30352,162.52492 195.1958,162.69032 L 194.19684,162.90887 C 194.0201,162.75879 193.84336,162.60871 193.66661,162.45863 C 192.89976,160.48283 191.23136,158.9312 191.68767,156.48236 L 196.83411,156.22926 z"
             id="path2187"
             style="fill:#000000;fill-opacity:1;stroke-width:1;stroke-miterlimit:4;stroke-dasharray:none" />
        </g>
        <g
           id="g2522">
          <path
             transform="matrix(0.395063,0,0,0.395063,109.70587,84.690514)"
             d="M 101.60106,104.93021 C 99.923708,109.73443 98.733289,114.66811 97.582095,119.61586 C 96.276952,124.1564 96.56481,128.58897 97.106561,133.09795 C 97.536463,133.54204 99.024742,131.61275 99.901113,130.9342 C 101.94172,128.22737 104.6329,126.68246 107.37497,125.00858 C 111.24597,125.21374 113.01211,128.02649 115.44812,130.73327 C 118.08706,133.97005 120.39437,132.91014 123.67996,133.07934 C 127.94904,130.2512 128.8179,125.8856 130.11417,121.22821 C 131.53369,114.1795 130.51096,107.2394 129.23854,100.2913 C 128.907,97.261971 127.2454,94.729591 126.11069,92.053291 L 126.66628,91.139067 C 129.84619,93.375929 132.55429,94.802202 133.42666,99.298683 C 134.98506,106.91604 136.09973,114.47738 134.49284,122.24331 C 132.65927,128.52789 131.20115,134.23703 124.84129,137.32101 C 119.81425,137.83139 116.1652,137.52703 112.45538,133.53328 C 111.13171,132.062 109.59056,130.61331 108.52254,128.97851 C 106.64594,130.49783 104.10454,131.81366 102.6,134.00271 C 98.52481,136.53587 96.890331,138.44282 93.316342,134.18228 C 92.888877,129.02576 92.495701,123.97284 94.070854,118.83872 C 95.322401,113.75015 96.528202,108.63007 98.768021,103.8577 L 101.60106,104.93021 z"
             id="path2159"
             style="fill:#000000;fill-opacity:1;stroke-width:1;stroke-miterlimit:4;stroke-dasharray:none" />
          <path
             transform="matrix(0.395063,0,0,0.395063,109.70587,84.690514)"
             d="M 143.61066,122.31419 C 144.08428,124.98571 144.98766,127.53908 145.75696,130.12876 C 145.99931,130.88437 146.48573,131.5386 146.85011,132.24352 C 141.03044,134.1792 142.53461,132.48169 142.55379,128.21563 C 142.6157,124.2989 143.92152,120.67151 145.0376,116.98887 C 146.3023,113.30761 148.88929,111.9072 151.89682,109.99459 C 154.50888,109.00017 156.89719,109.86241 159.46975,110.33737 L 159.46603,111.12826 C 157.58936,111.96516 155.51694,112.40914 153.86643,113.75351 C 152.30313,115.33719 150.18369,116.27506 149.57119,118.71502 C 148.58655,121.90355 147.42755,125.05072 147.37501,128.44968 C 147.2962,132.7398 148.2647,133.40073 143.00372,134.78572 C 142.64596,133.61092 142.15801,132.45494 141.9228,131.23618 C 141.30249,128.46366 140.56207,125.712 140.21681,122.88484 L 143.61066,122.31419 z"
             id="path2161"
             style="fill:#000000;fill-opacity:1;stroke-width:1;stroke-miterlimit:4;stroke-dasharray:none" />
          <path
             transform="matrix(0.395063,0,0,0.395063,109.70587,84.690514)"
             d="M 171.11585,114.38514 C 171.50962,117.5701 171.58645,120.77638 171.70366,123.97876 C 172.6628,125.43792 170.78776,127.05827 170.57727,127.76597 C 170.46452,127.77878 170.35176,127.7916 170.23901,127.80442 L 170.21558,128.31896 C 169.97891,128.32614 169.74223,128.33331 169.50555,128.34049 C 168.93302,127.12151 166.94321,126.13446 167.58224,124.24559 C 167.34904,121.09387 167.11448,117.94121 166.93437,114.78484 L 171.11585,114.38514 z"
             id="path2163"
             style="fill:#000000;fill-opacity:1;stroke-width:1;stroke-miterlimit:4;stroke-dasharray:none" />
          <path
             transform="matrix(0.395063,0,0,0.395063,109.70587,84.690514)"
             d="M 184.89295,91.746938 C 185.25724,96.805748 184.84748,101.88505 184.58529,106.9401 C 184.32197,112.35038 183.99918,117.75674 183.60718,123.15879 C 183.46805,124.6533 183.08825,126.10913 182.82928,127.58144 L 181.96573,127.66756 C 181.47185,126.20695 180.69439,124.82114 180.47693,123.26455 C 179.8374,117.75228 179.6787,112.24808 180.14254,106.69925 C 180.40964,101.86403 180.72742,97.024839 180.70534,92.180139 L 184.89295,91.746938 z"
             id="path2165"
             style="fill:#000000;fill-opacity:1;stroke-width:1;stroke-miterlimit:4;stroke-dasharray:none" />
          <path
             transform="matrix(0.395063,0,0,0.395063,109.70587,84.690514)"
             d="M 178.32432,118.4101 C 182.4123,116.16346 186.84036,114.78408 191.28819,113.48034 C 193.12481,112.99452 194.99146,112.63807 196.84217,112.21715 L 196.92934,112.42131 C 195.33923,113.46181 193.82892,114.63003 192.15644,115.5445 C 188.1989,117.7358 184.17217,119.78194 180.1024,121.76592 L 178.32432,118.4101 z"
             id="path2167"
             style="fill:#000000;fill-opacity:1;stroke-width:1;stroke-miterlimit:4;stroke-dasharray:none" />
          <path
             transform="matrix(0.395063,0,0,0.395063,109.70587,84.690514)"
             d="M 200.01803,112.41031 C 202.55324,113.2338 204.93527,112.41928 207.39668,112.10991 C 209.07,112.07628 209.5388,110.10463 210.36502,109.33119 C 210.44141,110.64823 209.38051,109.82264 208.48075,110.27178 C 204.87944,110.8766 203.34515,113.36116 201.13028,115.84552 C 199.19621,119.57472 200.28297,121.46206 201.86351,124.76616 C 204.73447,127.36129 208.47097,127.82472 212.08968,128.71226 C 213.72872,129.34845 215.47275,128.85311 217.13068,128.92213 L 217.44233,129.76885 C 215.65604,130.50841 214.08312,132.08597 211.95928,132.03893 C 206.56057,132.18087 202.02434,131.76134 197.98822,127.64982 C 195.24097,122.56145 194.15514,118.6467 197.23036,113.20183 C 200.33185,109.4374 203.09303,106.44184 208.19434,105.68938 C 212.21161,106.43922 214.363,106.04019 214.62253,110.84946 C 212.77663,113.0799 211.82369,115.51289 208.50987,116.20122 C 205.3563,116.56067 202.34789,117.18628 199.21084,116.02653 L 200.01803,112.41031 z"
             id="path2169"
             style="fill:#000000;fill-opacity:1;stroke-width:1;stroke-miterlimit:4;stroke-dasharray:none" />
          <path
             transform="matrix(0.395063,0,0,0.395063,109.70587,84.690514)"
             d="M 268.23116,116.56275 C 266.64734,114.17217 264.25756,113.99257 261.95819,113.07235 C 258.5146,113.26806 256.66449,115.57055 254.25226,117.65112 C 251.78973,119.54492 252.64133,122.29685 252.24661,124.38866 C 254.04154,124.4078 255.49826,123.2673 257.08695,122.66927 C 259.40581,120.98875 261.64267,119.11468 263.81513,117.28037 C 268.29789,117.14696 268.79857,119.34443 270.42568,123.05797 C 271.3703,125.76525 272.09975,128.54773 272.87909,131.30811 L 271.70748,131.992 C 269.66502,129.77878 267.36242,127.72748 266.04249,124.96549 C 266.10305,123.74282 263.02666,121.23977 266.20164,121.75249 C 264.0241,123.53528 261.77329,125.47371 259.31505,126.94581 C 254.64695,128.9009 251.79171,129.91114 247.88546,126.17069 C 247.72071,121.6556 247.33114,118.27243 250.97315,114.54219 C 254.48397,111.32031 257.5403,108.71722 262.57348,108.75799 C 265.93257,110.00044 269.05035,110.6528 271.27836,113.88799 L 268.23116,116.56275 z"
             id="path2171"
             style="fill:#000000;fill-opacity:1;stroke-width:1;stroke-miterlimit:4;stroke-dasharray:none" />
          <path
             transform="matrix(0.395063,0,0,0.395063,109.70587,84.690514)"
             d="M 170.19243,100.55014 C 170.11176,102.59455 169.00835,104.32762 168.30563,106.17156 L 167.64603,106.24772 C 166.81343,104.33001 165.14336,102.7272 165.50414,100.35315 L 170.19243,100.55014 z"
             id="path2189"
             style="fill:#000000;fill-opacity:1;stroke-width:1;stroke-miterlimit:4;stroke-dasharray:none" />
        </g>
        <g
           id="g2532"
           transform="translate(6.822719,0)">
          <path
             transform="matrix(0.395063,0,0,0.395063,109.70587,84.690514)"
             d="M 127.80135,220.57035 C 127.68913,225.43665 127.63407,230.30299 127.59744,235.17038 C 127.56377,240.92986 127.6028,246.68663 127.42983,252.4419 C 127.54863,254.33065 126.33201,255.88917 125.80863,257.53266 L 124.78825,257.38858 C 124.25989,255.78635 123.26898,254.2851 123.1854,252.52794 C 122.78237,246.74026 122.57894,240.94585 122.68892,235.13983 C 122.73739,230.20241 122.75279,225.26143 123.09294,220.33295 L 127.80135,220.57035 z"
             id="path2191"
             style="fill:#000000;fill-opacity:1;stroke-width:1;stroke-miterlimit:4;stroke-dasharray:none" />
          <path
             transform="matrix(0.395063,0,0,0.395063,109.70587,84.690514)"
             d="M 113.50836,248.57662 C 118.48171,246.93898 123.53623,245.56667 128.5796,244.16632 C 132.80164,242.71476 137.2334,242.42733 141.63554,242.0061 L 141.99659,242.9824 C 138.16537,245.36597 134.40652,247.79554 129.91221,248.81561 C 124.99701,250.28355 120.06396,251.69647 115.17547,253.25106 L 113.50836,248.57662 z"
             id="path2193"
             style="fill:#000000;fill-opacity:1;stroke-width:1;stroke-miterlimit:4;stroke-dasharray:none" />
          <path
             transform="matrix(0.395063,0,0,0.395063,109.70587,84.690514)"
             d="M 148.81581,241.9839 C 151.65253,241.03818 153.39413,238.75182 155.48053,236.87934 C 157.00384,235.16278 155.06982,235.97225 154.9623,235.73479 C 151.98221,235.65288 150.06201,237.55078 147.72803,239.03789 C 144.84328,240.98305 144.81843,243.65978 144.11016,246.35625 C 146.31393,247.53517 148.8351,247.1419 151.22333,247.29194 C 155.69097,247.29824 159.90889,246.08588 164.15454,244.8868 L 164.23807,245.05953 C 160.24505,247.59174 156.29728,250.258 151.60477,251.33007 C 146.28885,251.86914 141.91048,252.45321 139.15549,247.07741 C 139.40707,242.12671 140.71245,238.5603 144.76749,235.23048 C 148.62662,232.66499 151.86787,230.52436 156.69296,231.48561 C 159.43242,234.46132 161.33814,235.22383 158.8036,239.58154 C 156.20495,241.92718 153.83872,244.36932 150.3344,245.45088 L 148.81581,241.9839 z"
             id="path2195"
             style="fill:#000000;fill-opacity:1;stroke-width:1;stroke-miterlimit:4;stroke-dasharray:none" />
          <path
             transform="matrix(0.395063,0,0,0.395063,109.70587,84.690514)"
             d="M 176.17979,237.48643 C 173.60962,238.11021 171.11049,238.9694 168.58981,239.75668 C 167.72713,240.35294 168.76694,237.6668 168.85551,236.62186 C 172.57291,237.38259 176.21835,238.40075 179.8553,239.46923 C 185.10207,240.51903 186.19633,243.16829 188.43142,247.04272 C 186.94712,252.04295 182.95112,253.30525 178.41596,254.88246 C 173.09136,256.30445 171.98851,254.46799 169.25318,251.0631 C 169.33872,250.51401 169.42426,249.96493 169.50981,249.41585 L 170.60832,249.34636 C 170.74784,249.65063 170.88736,249.95489 171.02688,250.25915 C 172.84882,250.37056 174.95627,251.28474 176.94966,250.14042 C 178.98427,249.26937 181.48264,248.31694 183.18624,247.29461 C 181.56171,246.30926 180.16565,243.91855 178.31265,244.33858 C 174.69411,243.31231 171.09169,242.23693 167.39853,241.48596 C 165.30666,238.51594 162.42534,237.85157 167.17645,235.14179 C 169.96185,234.48088 172.71414,233.62926 175.58719,233.40799 L 176.17979,237.48643 z"
             id="path2197"
             style="fill:#000000;fill-opacity:1;stroke-width:1;stroke-miterlimit:4;stroke-dasharray:none" />
          <path
             transform="matrix(0.395063,0,0,0.395063,109.70587,84.690514)"
             d="M 194.94005,216.12042 C 196.52074,220.77392 197.2804,225.64296 198.13981,230.46534 C 199.31733,235.09556 199.04713,239.66201 198.75739,244.31283 C 199.02809,244.56944 198.02976,246.39915 197.9429,246.64821 L 197.04242,246.56987 C 196.78078,245.88172 196.54777,245.18273 196.2575,244.50541 C 195.01654,240.15778 193.84565,235.83123 193.34271,231.29992 C 192.485,226.73994 191.68154,222.15896 190.38933,217.69567 L 194.94005,216.12042 z"
             id="path2199"
             style="fill:#000000;fill-opacity:1;stroke-width:1;stroke-miterlimit:4;stroke-dasharray:none" />
          <path
             transform="matrix(0.395063,0,0,0.395063,109.70587,84.690514)"
             d="M 183.86167,235.95276 C 189.56473,234.05335 195.32567,232.33428 201.07768,230.59079 C 205.76077,228.84788 210.55788,227.98904 215.46066,227.35487 C 216.087,227.32132 216.71358,227.3479 217.34004,227.34442 L 217.76714,228.05238 C 217.68924,228.14543 216.62436,229.89437 216.38951,229.69812 C 212.02535,232.26446 207.64799,234.4439 202.56403,235.49515 C 196.81718,237.24732 191.07387,239.01144 185.31348,240.71849 L 183.86167,235.95276 z"
             id="path2201"
             style="fill:#000000;fill-opacity:1;stroke-width:1;stroke-miterlimit:4;stroke-dasharray:none" />
        </g>
      </g>
      <g
         style="fill:#000000"
         transform="matrix(0.395063,0,0,0.395063,101.12406,87.504978)"
         id="g2279">
        <path
           style="opacity:1;fill:#000000;fill-opacity:1;stroke-width:1;stroke-miterlimit:4;stroke-dasharray:none"
           id="path2203"
           d="M 561.44342,119.82647 C 561.37739,124.086 561.4167,128.34525 561.47934,132.60412 C 561.47694,134.94522 561.87956,137.25977 562.12445,139.57265 C 554.71739,139.72458 557.61119,135.18693 558.30598,129.56612 C 559.22664,122.1566 560.766,114.85832 562.37957,107.57713 C 563.91787,100.85701 564.28804,98.968661 570.4473,99.140903 C 572.33588,102.5043 573.211,106.36831 574.36717,110.04302 C 574.83463,110.84095 575.08229,111.74874 575.43985,112.6016 C 574.90622,112.05501 576.77001,109.17647 577.32603,108.09965 C 578.54726,103.78795 580.61095,103.45533 583.92571,101.88278 C 587.49497,104.0727 588.01814,107.74325 589.25092,111.51514 C 590.62972,116.15404 591.69501,120.87766 592.78221,125.5908 C 593.7621,128.48529 593.85945,131.55917 594.19032,134.49823 C 594.75546,135.52932 593.3559,135.26573 593.18421,135.42365 L 593.1596,136.50722 C 592.469,136.2139 591.25912,136.55907 590.8422,135.52294 C 589.71729,132.70692 588.20909,129.91458 587.96531,126.70583 C 586.85151,122.11631 585.78532,117.5122 584.46485,112.97625 C 583.92467,111.35177 581.85244,107.26526 583.05794,106.91264 C 582.6864,108.03327 582.60301,109.29541 581.94332,110.27452 C 580.41832,113.30678 579.44569,116.28746 576.12244,117.7027 C 572.72044,116.2812 570.8266,115.93316 569.68178,111.65156 C 568.76469,108.69822 567.74595,105.7381 567.0098,102.74811 C 567.02426,104.72411 568.12387,107.01526 567.05319,108.67612 C 565.46742,115.78185 563.96248,122.91152 563.17358,130.16107 C 562.53243,135.94487 564.3592,140.43559 557.25649,140.12798 C 557.19868,137.63839 557.14111,135.14808 557.09854,132.65795 C 557.1306,128.36042 557.1721,124.06283 557.24397,119.76561 L 561.44342,119.82647 z" />
        <path
           style="opacity:1;fill:#000000;fill-opacity:1;stroke-width:1;stroke-miterlimit:4;stroke-dasharray:none"
           id="path2205"
           d="M 612.03021,120.2195 C 613.65911,118.06119 610.46673,117.52028 609.99451,116.70503 C 606.24411,116.33641 604.1522,118.64973 601.33297,120.60862 C 598.31677,123.40137 597.87601,126.48011 597.54644,130.14033 C 598.49363,132.00692 600.79899,130.10196 602.08947,130.08673 C 604.992,128.93361 605.80529,126.42369 607.32253,124.08771 C 608.54944,120.22179 609.30532,122.29154 613.1478,123.47366 C 613.32377,125.85324 614.08817,128.11168 614.66111,130.40672 C 615.18789,131.65694 615.48692,133.30296 615.81414,134.45056 C 614.44559,134.99916 617.43961,132.24318 617.93485,131.57064 C 620.52119,126.87872 621.2929,121.56962 622.23805,116.37678 C 622.90265,111.95425 623.23705,107.49303 623.60518,103.03978 C 627.45562,100.24203 628.05734,103.53793 627.86606,107.92269 C 627.49674,113.68225 627.61052,119.43957 627.81475,125.19966 C 628.34745,126.98628 627.67741,128.92583 627.60874,130.78891 C 624.79612,131.3725 628.56271,126.17774 629.26531,124.69131 C 630.95005,120.55617 634.01426,117.55132 636.9547,114.36496 C 639.11448,112.09153 641.9581,111.58558 644.6901,110.62666 C 645.06881,110.45028 645.68789,110.94365 645.99557,111.04139 L 646.5055,113.56288 C 646.44582,113.68885 646.53312,114.59574 646.0794,114.4624 C 644.15436,115.6508 642.16129,116.77593 640.35435,118.15132 C 637.83156,120.83051 635.26146,123.37744 633.83683,126.89384 C 632.13008,130.57213 631.22225,134.17679 627.36284,135.93957 C 624.17442,132.65237 622.50521,131.05863 622.97811,125.40978 C 622.81005,119.48757 622.70445,113.56322 623.13912,107.64672 C 623.52341,102.62631 624.33426,101.77408 627.57688,103.663 C 626.4698,108.0653 625.38238,112.47655 623.96434,116.79226 C 622.2945,121.87403 620.5979,126.94784 618.61539,131.91892 C 617.21185,135.07684 617.07817,136.98964 613.49895,137.1679 C 612.24057,135.50914 610.29512,134.35822 609.96909,131.97155 C 609.14017,129.35019 608.18454,126.75947 607.95649,123.98865 C 616.32044,121.71573 610.89734,121.9971 612.07137,126.09908 C 609.86624,129.75674 608.11402,133.15428 603.80036,134.8331 C 598.68918,136.01133 594.99384,136.29256 592.68528,130.76476 C 592.87374,125.34008 594.14817,121.06053 598.23372,117.08458 C 602.50627,113.92898 606.21554,111.24008 611.7989,112.63528 C 614.84386,115.68991 617.20814,116.66088 615.56256,121.65861 L 612.03021,120.2195 z" />
        <path
           style="opacity:1;fill:#000000;fill-opacity:1;stroke-width:1;stroke-miterlimit:4;stroke-dasharray:none"
           id="path2207"
           d="M 639.51177,122.25041 C 638.98486,125.06639 640.5765,126.8256 641.61459,129.05839 C 643.25544,130.55186 645.4311,130.70602 647.42799,131.28852 C 648.25963,131.44426 649.01573,131.06196 649.8096,130.94868 L 650.09945,131.41787 C 649.37361,132.08808 648.88623,133.01505 647.92195,133.42849 C 643.80405,134.45866 641.48326,135.37744 637.83955,132.13166 C 636.14448,128.66408 634.25119,125.98462 635.28472,121.80365 L 639.51177,122.25041 z" />
        <path
           style="opacity:1;fill:#000000;fill-opacity:1;stroke-width:1;stroke-miterlimit:4;stroke-dasharray:none"
           id="path2209"
           d="M 656.87555,123.89242 C 660.67127,123.33094 664.1204,121.76183 667.64033,120.37627 C 669.52125,120.69957 670.84107,117.03903 670.8595,117.0198 C 669.02043,116.24927 667.14518,117.17797 665.32718,117.33015 C 661.04158,119.04098 660.38241,122.09008 658.87886,125.88321 C 658.75194,130.69151 661.32459,132.24297 664.51523,135.05727 C 668.75948,137.21863 672.86552,137.04839 677.41447,136.483 L 677.71509,137.25836 C 672.41898,140.00654 667.8063,141.86503 661.90195,139.396 C 656.64295,135.43135 653.23688,131.92558 653.81602,124.79081 C 655.80831,119.05303 657.92076,114.74229 664.09337,112.56761 C 669.09164,111.83255 672.2949,111.47823 675.46798,115.8722 C 674.46877,120.12085 674.28208,122.40519 669.48473,124.45267 C 665.53272,125.99062 661.58177,127.44961 657.27693,127.59084 L 656.87555,123.89242 z" />
        <path
           style="opacity:1;fill:#000000;fill-opacity:1;stroke-width:1;stroke-miterlimit:4;stroke-dasharray:none"
           id="path2211"
           d="M 712.23407,104.06442 C 712.64505,109.4916 712.54049,114.9406 712.53064,120.37852 C 712.62305,126.2481 712.41323,132.0889 711.71745,137.90247 C 711.74477,139.35045 710.89221,140.58824 710.49223,141.89001 L 709.56195,141.83586 C 709.13113,140.55652 708.39777,139.35255 708.26072,137.97181 C 707.39607,132.14484 707.21467,126.28963 707.35264,120.37927 C 707.32426,115.10175 707.39744,109.81402 707.01449,104.5469 L 712.23407,104.06442 z" />
        <path
           style="opacity:1;fill:#000000;fill-opacity:1;stroke-width:1;stroke-miterlimit:4;stroke-dasharray:none"
           id="path2213"
           d="M 692.19447,120.90813 C 696.82582,120.77971 700.8218,118.83554 704.88952,116.86992 C 709.72332,114.23225 712.80057,110.09745 715.72907,105.61616 C 717.21083,102.4224 718.54841,99.074314 719.81341,95.833041 C 727.04641,96.464088 724.81992,103.67087 724.8978,109.48135 C 724.96457,116.28805 725.13702,123.09154 725.43246,129.89126 C 725.92728,130.80623 724.81233,131.87709 724.50227,132.87 C 726.55367,130.7924 728.59528,128.7031 730.62968,126.61016 C 734.34086,123.01573 735.81531,124.42148 739.71258,125.81719 C 741.43291,128.41074 741.31964,131.41233 741.7032,134.35262 C 742.51332,136.16593 740.89484,137.73087 740.57094,139.08446 C 740.46446,139.10975 740.35798,139.13504 740.25151,139.16033 L 739.84375,139.81964 C 739.60094,139.76061 739.35814,139.70159 739.11533,139.64256 C 738.23304,138.11278 736.49875,137.10641 736.80516,134.88801 C 736.43764,133.02371 736.16153,131.1345 735.62935,129.30919 C 735.19663,129.6921 734.82596,130.15946 734.3312,130.45791 C 731.91303,132.9479 729.61727,135.61998 726.85054,137.72436 C 721.47234,137.35827 720.43185,136.05889 720.26041,130.13895 C 720.0465,123.28127 719.91267,116.42113 719.82567,109.56003 C 719.71661,102.91335 717.11935,99.754782 723.68294,99.180964 C 723.38318,100.00034 721.31377,105.98599 719.9174,108.15211 C 716.42014,113.30806 712.78354,118.08568 707.13429,121.10776 C 702.34749,123.35374 697.66142,125.55605 692.22659,125.50126 L 692.19447,120.90813 z" />
        <path
           style="opacity:1;fill:#000000;fill-opacity:1;stroke-width:1;stroke-miterlimit:4;stroke-dasharray:none"
           id="path2215"
           d="M 748.18862,123.45164 C 752.00735,123.15096 755.02101,121.10927 758.24487,119.34594 C 761.03062,118.17256 760.41892,115.73443 761.01951,114.03575 C 759.51969,113.26517 758.37625,115.09554 757.2495,115.5473 C 754.08272,119.17343 753.97805,123.09891 754.03139,127.64915 C 754.92176,132.81116 757.96508,133.97834 762.00758,136.10095 C 765.70325,137.48101 768.94201,136.27291 772.52083,135.62667 L 772.99234,136.40714 C 769.13489,139.26856 765.76028,141.49008 760.64766,140.93295 C 754.12808,138.34381 750.05146,135.50557 748.73855,128.03758 C 748.85004,121.6527 749.22833,116.09646 754.17598,111.39142 C 759.17733,108.80055 761.87083,107.95709 765.73856,112.60478 C 765.36506,117.22745 765.47411,120.31598 760.86937,123.28713 C 756.99767,125.53587 753.1719,127.59846 748.58783,127.94276 L 748.18862,123.45164 z" />
        <path
           style="opacity:1;fill:#000000;fill-opacity:1;stroke-width:1;stroke-miterlimit:4;stroke-dasharray:none"
           id="path2227"
           d="M 571.44282,170.53532 C 569.85565,177.03978 569.3055,183.73658 568.66385,190.38376 C 568.05135,198.89651 566.62325,207.31052 565.21392,215.71746 L 564.42952,215.66864 C 563.98215,207.12305 563.33114,198.55585 564.04143,190.00392 C 564.51912,182.9854 564.98259,175.90685 566.74543,169.06947 L 571.44282,170.53532 z" />
        <path
           style="opacity:1;fill:#000000;fill-opacity:1;stroke-width:1;stroke-miterlimit:4;stroke-dasharray:none"
           id="path2229"
           d="M 557.91622,190.43818 C 556.01968,191.56457 554.51295,193.17751 552.84905,194.58189 C 552.1468,195.77073 551.96559,191.96137 551.64682,190.61792 C 556.0398,189.10029 560.49743,187.78581 564.95194,186.46439 C 570.37784,184.83809 575.8738,183.49622 581.41703,182.36141 C 583.76785,181.55776 585.40538,182.902 587.38325,183.50728 L 587.22138,184.39763 C 585.65386,185.23717 584.35779,186.65804 582.4948,186.9291 C 577.16493,188.53163 571.81121,190.05064 566.46531,191.59885 C 562.03005,192.94271 557.59605,194.28833 553.192,195.73164 C 552.02534,194.91154 545.75173,194.35499 549.67693,190.91111 C 551.63445,189.5638 553.51424,188.09738 555.65093,187.02335 L 557.91622,190.43818 z" />
        <path
           style="opacity:1;fill:#000000;fill-opacity:1;stroke-width:1;stroke-miterlimit:4;stroke-dasharray:none"
           id="path2231"
           d="M 581.66078,195.27679 C 585.92926,194.01597 589.95959,192.16487 593.97322,190.27572 C 596.56614,189.5242 598.39503,187.03878 600.08705,185.58427 C 601.65218,188.91483 598.86333,187.12064 597.56176,188.75474 C 593.54049,190.44956 590.80206,193.51063 588.08467,196.76663 C 585.14423,198.53881 587.66194,201.31174 587.55765,202.433 C 591.06592,203.78907 594.58795,202.98205 598.17156,202.40725 C 603.0981,201.51957 607.41228,199.25715 611.66541,196.76095 C 614.51551,195.33483 615.67366,192.80601 617.25392,190.37958 C 617.49444,190.57951 616.53298,192.00719 616.23552,192.67876 C 613.73619,193.5944 611.41035,194.88831 609.02887,196.05313 C 608.02568,195.77068 609.64717,194.06254 609.95631,193.06725 C 614.41552,193.42477 618.65008,194.62737 622.8705,196.0027 C 628.35999,198.55368 628.91881,201.2432 627.36443,206.50473 C 623.88929,210.16616 619.67158,210.70728 614.91375,210.98308 C 609.12572,209.82494 609.71932,208.06365 609.3982,203.37661 C 610.34292,201.53187 612.25142,200.56527 613.66052,199.17686 L 614.00494,199.47384 C 613.41965,200.95515 612.06284,202.27791 612.20729,204.02348 C 612.78003,204.42673 612.96282,207.15259 614.92725,205.93851 C 617.74459,205.52723 620.50246,205.53357 622.82101,203.53639 C 622.20393,202.68469 622.00224,201.18183 620.96979,200.98129 C 617.09777,199.81941 613.27526,198.49843 609.1741,198.28005 C 605.64681,196.20371 602.07948,195.41364 606.79453,191.51165 C 609.52172,190.34743 612.21708,189.06648 615.11404,188.36545 C 618.15422,189.41262 620.28363,187.42241 619.15896,191.88989 C 616.73941,193.62493 614.25076,195.25911 612.11398,197.35988 C 608.15307,200.81928 604.20503,204.35733 599.28344,206.409 C 593.92466,207.99735 589.13176,209.40661 583.97106,206.34483 C 580.90708,201.66664 580.50162,198.58103 583.91795,193.57607 C 587.3383,189.60222 590.79885,185.84959 595.82549,183.87664 C 600.46409,183.04475 604.13838,181.44259 604.88193,187.53957 C 602.41364,190.55217 600.08601,193.27281 596.15208,194.72293 C 591.88351,196.68058 587.60079,198.62383 583.04456,199.84324 L 581.66078,195.27679 z" />
        <path
           style="opacity:1;fill:#000000;fill-opacity:1;stroke-width:1;stroke-miterlimit:4;stroke-dasharray:none"
           id="path2233"
           d="M 638.45618,176.23139 C 638.31459,181.11744 638.46233,186.00494 638.5693,190.89004 C 638.86136,195.8213 638.59848,200.73278 638.31205,205.64356 C 638.56792,207.16915 637.02361,208.07896 636.48885,209.08978 L 635.63621,208.78819 C 635.19083,207.91508 633.85977,206.99479 634.05409,205.68667 C 633.6416,200.80942 633.26254,195.92921 633.27924,191.02076 C 633.15545,186.03458 632.98608,181.04406 633.19597,176.0575 L 638.45618,176.23139 z" />
        <path
           style="opacity:1;fill:#000000;fill-opacity:1;stroke-width:1;stroke-miterlimit:4;stroke-dasharray:none"
           id="path2235"
           d="M 626.10375,194.08673 C 630.78174,192.62143 635.5428,191.46648 640.30771,190.32884 C 644.30414,189.46557 648.41559,189.61289 652.479,189.62818 L 652.67855,190.61667 C 649.00988,192.1797 645.37193,193.86154 641.56329,195.05436 C 636.92472,196.4201 632.27587,197.75315 627.6552,199.17866 L 626.10375,194.08673 z" />
        <path
           style="opacity:1;fill:#000000;fill-opacity:1;stroke-width:1;stroke-miterlimit:4;stroke-dasharray:none"
           id="path2237"
           d="M 694.65856,197.45806 C 692.95071,201.84827 692.15332,206.46435 691.39573,211.08484 C 691.69008,215.11739 690.59117,218.01117 689.23152,221.36662 C 683.04998,219.8451 683.78391,214.17606 682.85689,208.69819 C 681.65631,201.51846 681.21709,194.26002 680.85608,187.00255 C 680.4971,181.24162 681.54501,178.00679 685.83843,174.61366 C 690.83537,173.96275 693.70428,176.62586 697.00094,179.91181 C 700.36475,184.38351 698.69777,187.33813 697.11809,191.81109 C 695.45989,194.32384 692.75352,194.34053 690.31915,195.3101 L 689.91273,194.62991 C 691.03643,192.93497 692.34919,191.35593 693.1806,189.47844 C 693.36199,187.16742 694.90992,185.64602 692.90523,183.36052 C 691.28691,182.05334 690.10294,180.14887 687.87306,179.65787 C 687.37137,181.00928 685.06991,184.12034 686.15168,186.83116 C 686.48848,193.85661 686.89325,200.88682 688.11737,207.8291 C 689.32999,214.55114 691.90125,215.795 686.4474,216.59432 C 686.45241,214.50476 685.96419,212.35493 686.46243,210.32564 C 687.37484,205.3705 688.28724,200.39944 690.36935,195.76654 L 694.65856,197.45806 z" />
        <path
           style="opacity:1;fill:#000000;fill-opacity:1;stroke-width:1;stroke-miterlimit:4;stroke-dasharray:none"
           id="path2239"
           d="M 709.39144,185.72029 C 710.76221,183.50228 707.65,182.75905 707.11645,181.85178 C 704.12855,181.76768 702.88343,183.67412 700.90121,185.4836 C 698.62185,188.24311 699.65828,190.53288 699.87498,193.43932 C 700.7792,195.60211 703.08488,193.86248 704.34818,194.02902 C 706.93421,192.64925 707.7111,190.23329 708.9132,187.77958 C 710.27813,182.46129 711.4368,183.4752 715.64999,185.41794 C 716.14032,187.89177 716.9143,190.29002 717.60802,192.70952 C 717.32195,194.13496 718.73714,194.93539 719.23418,195.9152 L 719.08039,196.53327 C 717.46291,195.94315 715.21013,196.69394 714.00733,194.6824 C 712.58425,192.21067 710.92311,189.92578 710.51785,186.95932 C 720.20993,185.51058 711.83339,186.67526 713.87161,189.69473 C 711.84294,193.53933 710.40089,197.22641 706.03909,199.05532 C 701.25319,199.94203 697.92208,199.89949 695.03336,195.37052 C 693.88662,190.45756 693.86971,186.54882 697.02512,182.20983 C 700.66508,178.7005 703.73261,176.08566 709.12131,177.33785 C 712.25887,180.34574 714.73986,181.57205 713.80389,186.67632 L 709.39144,185.72029 z" />
        <path
           style="opacity:1;fill:#000000;fill-opacity:1;stroke-width:1;stroke-miterlimit:4;stroke-dasharray:none"
           id="path2241"
           d="M 736.47429,180.51002 C 733.58155,180.26582 730.89499,181.25166 728.16556,181.85595 C 727.75879,180.37777 729.60674,181.32132 730.02322,181.16682 C 732.93374,182.87908 734.84505,185.48419 736.95026,187.98621 C 739.0648,192.29169 737.36628,194.22843 735.32356,197.8301 C 731.88647,200.48253 730.10724,199.63144 726.62855,198.45407 C 725.08147,197.52662 726.30958,195.79199 726.17833,194.69659 L 726.50616,194.69574 C 726.86572,195.01885 726.9782,196.27611 727.87887,195.92929 C 729.09803,195.36911 730.5792,195.23573 731.5851,194.22635 C 731.84187,193.25828 733.86675,192.16376 732.49391,190.79999 C 730.71488,188.81065 729.2334,186.52407 726.75069,185.19818 C 724.09838,181.81224 722.39091,180.40143 726.40122,177.13338 C 729.77652,176.33227 733.10286,175.3804 736.64833,175.7413 L 736.47429,180.51002 z" />
        <path
           style="opacity:1;fill:#000000;fill-opacity:1;stroke-width:1;stroke-miterlimit:4;stroke-dasharray:none"
           id="path2243"
           d="M 759.26325,172.58118 C 755.83546,173.79604 752.70507,175.62534 749.53215,177.3559 C 749.43593,177.43196 749.65287,177.14233 749.71322,177.03555 C 753.81682,178.38656 757.9261,179.68399 761.98777,181.15374 C 767.85118,183.72998 768.63878,186.4865 767.53116,192.21336 C 764.22003,196.68701 759.29205,198.5683 754.29405,200.48894 C 751.98768,201.30538 749.91246,200.42594 747.74262,200.11831 L 747.76162,198.72506 C 749.34267,197.7697 750.90746,196.78675 752.50515,195.85875 C 756.0944,194.17665 759.85455,192.65623 762.66099,189.75663 C 762.53242,189.57704 763.53601,185.74578 760.02094,186.06914 C 755.81892,184.51688 751.52905,183.2612 747.31155,181.75428 C 744.52878,177.98704 741.91222,176.86366 746.89122,172.94374 C 750.37035,171.1073 753.80373,169.16207 757.5382,167.85454 L 759.26325,172.58118 z" />
      </g>
      <g
         style="fill:#000000"
         transform="matrix(0.395063,0,0,0.395063,81.192126,114.45)"
         id="g2297">
        <path
           style="opacity:1;fill:#000000;fill-opacity:1;stroke-width:1;stroke-miterlimit:4;stroke-dasharray:none"
           id="path2245"
           d="M 402.09854,416.19528 C 400.28147,421.61032 400.012,427.36383 399.49703,433.00897 C 398.99545,437.47918 398.78363,441.97003 398.60776,446.46168 C 391.40197,446.16569 393.21831,444.66484 393.26605,438.70844 C 393.29593,431.61604 393.48243,424.53166 393.79387,417.44728 C 393.97033,411.44331 395.02313,405.63188 396.63275,399.88329 C 397.7044,395.82082 400.40202,393.32872 403.18197,390.5385 C 407.23138,388.41234 409.09034,389.96187 412.57956,391.81942 C 415.44797,395.62822 414.97224,399.33359 414.37878,403.78849 C 413.24096,409.13478 410.34247,413.68166 407.49484,418.24164 C 405.01139,421.01765 403.23988,424.31587 401.31997,427.38868 C 401.67354,429.71243 404.27276,430.54893 406.06787,431.82645 C 410.79291,434.42279 415.91531,436.1466 420.96687,437.97644 C 422.7886,439.14991 424.90367,439.29066 426.90917,439.78944 L 427.1698,440.72245 C 424.73638,441.50365 422.67095,442.99995 419.83687,442.34787 C 414.0805,441.05528 408.41294,439.4743 403.25664,436.45461 C 398.73707,433.373 395.563,431.37238 396.1952,425.48519 C 398.21643,421.94188 400.22742,418.44167 402.98015,415.33369 C 405.47397,411.36837 408.06001,407.42856 409.09884,402.78302 C 409.36071,400.33372 410.1203,398.04494 408.83757,395.73869 C 408.14676,395.5286 407.35443,393.90412 406.29392,394.96512 C 404.50377,396.98625 402.40403,398.67321 401.74865,401.56974 C 400.22883,406.8499 399.31651,412.2141 399.10263,417.73098 C 398.81004,424.72752 398.62389,431.72451 398.69367,438.72959 C 398.73459,444.70427 400.6752,447.77805 393.09729,446.06895 C 393.52462,441.5629 393.90055,437.05169 394.39106,432.55163 C 394.97212,426.3354 395.30143,419.99112 397.39967,414.05624 L 402.09854,416.19528 z" />
        <path
           style="opacity:1;fill:#000000;fill-opacity:1;stroke-width:1;stroke-miterlimit:4;stroke-dasharray:none"
           id="path2247"
           d="M 428.75313,424.29595 C 431.9934,423.90815 434.21426,421.93478 436.73214,420.14537 C 438.97106,419.32641 438.65517,416.07223 439.08923,415.15287 C 437.18769,415.19082 435.88812,416.72561 434.35537,417.52923 C 430.42633,421.31155 429.72617,425.65265 429.5455,430.79051 C 430.56292,436.08158 433.49193,437.56667 438.1922,439.08419 C 442.86957,439.87283 446.83104,438.3504 451.07597,436.73727 L 451.61353,437.5692 C 447.14168,440.90937 443.22113,443.95439 437.27864,443.65944 C 430.0728,441.51321 425.61053,439.09299 424.24892,430.98288 C 424.71463,424.07027 425.70807,418.2782 431.20899,413.37383 C 435.89571,410.66334 439.66936,408.53095 443.83959,413.26102 C 443.70361,417.72429 444.00311,420.59712 439.97724,423.93969 C 436.67109,426.39736 433.51832,428.60204 429.24316,428.89471 L 428.75313,424.29595 z" />
        <path
           style="opacity:1;fill:#000000;fill-opacity:1;stroke-width:1;stroke-miterlimit:4;stroke-dasharray:none"
           id="path2249"
           d="M 454.05082,418.88989 C 456.65465,416.08472 457.55551,412.59107 458.54514,409.01721 C 459.80688,404.21663 458.26637,400.27726 456.76784,395.91543 C 454.97567,392.12285 453.95291,397.08053 453.06213,397.44922 C 450.72142,404.84448 451.39968,412.66732 451.97957,420.28434 C 452.74443,429.10421 454.28653,437.82453 455.87966,446.52384 C 457.28476,452.68831 457.27811,454.45755 452.08871,456.82989 C 448.36495,455.01801 446.5789,451.49407 444.37219,448.2085 C 441.72743,443.23597 442.51534,440.57434 445.36475,436.11017 C 450.98187,431.44071 457.93984,428.80602 464.60287,425.98196 C 471.32827,423.15939 478.18153,420.65989 484.99646,418.06846 C 489.35319,415.04073 485.18629,418.24168 487.10704,419.99446 C 483.95139,419.7712 481.75312,421.53976 479.17276,422.9384 C 475.79363,425.5558 475.28233,428.96034 474.31993,432.76966 C 474.36015,433.66675 474.7044,434.524 474.89663,435.40117 C 476.6551,433.63361 477.71933,431.37334 478.99351,429.26545 C 480.20811,424.76928 482.39533,423.90152 485.6831,421.84179 C 489.09883,424.00154 489.22346,427.41527 490.16182,431.09835 C 491.21107,434.48746 492.93775,434.89001 495.77098,436.30892 L 495.76803,437.19287 C 490.83872,437.13275 488.02241,437.78063 485.23682,432.78975 C 484.82658,431.42598 481.70903,425.43209 485.0868,427.29557 C 484.60944,428.79155 484.57878,430.51389 483.65473,431.78352 C 481.48858,435.52483 479.66438,439.09399 475.40919,440.67387 C 470.98893,438.48988 468.95234,438.29896 469.19752,432.14835 C 470.29963,426.84558 471.74206,422.25107 476.23037,418.7375 C 480.03204,416.48342 483.51429,414.49878 488.12331,414.92653 C 492.67981,418.25365 491.93521,420.41732 486.80271,422.77026 C 479.99718,425.23529 473.16533,427.6423 466.49172,430.45285 C 460.4896,432.98025 454.27902,435.40206 449.0727,439.38885 C 448.49192,441.90723 446.20714,442.49159 448.66271,445.69619 C 450.06147,447.78189 451.39871,450.09314 453.13786,451.82168 C 452.40353,450.35419 450.6997,449.04324 450.93487,447.41921 C 449.37081,438.53947 447.82331,429.64632 447.03325,420.65618 C 446.39457,412.05459 445.64144,403.2477 448.64742,394.99 C 452.82414,390.03433 456.27691,387.68832 461.24356,393.5969 C 463.468,399.0553 464.7729,404.20163 463.38279,410.16627 C 462.10326,414.61372 460.8917,418.92765 457.56249,422.35874 L 454.05082,418.88989 z" />
        <path
           style="opacity:1;fill:#000000;fill-opacity:1;stroke-width:1;stroke-miterlimit:4;stroke-dasharray:none"
           id="path2251"
           d="M 508.43882,421.50277 C 508.09972,418.6053 505.66073,420.97642 504.77897,420.80935 C 501.24866,423.2517 500.69543,426.8003 499.50806,430.5206 C 500.53804,435.03717 502.41058,434.68884 506.5247,435.90653 C 513.19565,436.23021 518.84374,433.61092 524.58558,430.6693 C 525.47687,429.96743 526.36817,429.26555 527.25946,428.56368 L 527.67162,428.97126 C 526.93649,429.91407 526.20136,430.85688 525.46623,431.79969 C 519.58249,436.9005 514.12147,441.07797 505.87417,440.94916 C 499.03215,439.33313 494.44143,437.65698 494.23827,429.67934 C 495.72447,424.07234 497.41193,419.27974 502.65298,416.0346 C 507.37878,414.98289 509.96716,414.78662 512.71859,419.32173 L 508.43882,421.50277 z" />
        <path
           style="opacity:1;fill:#000000;fill-opacity:1;stroke-width:1;stroke-miterlimit:4;stroke-dasharray:none"
           id="path2253"
           d="M 533.06417,397.86493 C 531.23458,402.42718 531.25443,407.3137 531.06585,412.13773 C 531.05926,417.70033 531.74626,423.20276 532.60087,428.68457 C 533.33669,433.85517 532.28835,432.46826 528.65482,433.57447 C 526.4427,431.85891 524.43239,429.91012 522.37764,428.01694 C 519.1821,423.93287 520.81646,423.42472 523.00555,419.67128 C 527.84108,417.01502 533.296,415.90392 538.60441,414.60046 C 543.32915,412.98439 547.7482,413.43859 552.38664,414.10936 C 555.77235,418.51892 552.73551,421.59622 550.03207,425.64555 C 547.34789,428.48844 547.45543,431.88641 546.90029,435.1635 C 548.80092,435.71708 550.70105,434.46504 552.46381,433.9001 C 555.96767,432.60076 556.38361,429.99142 557.72825,427.30759 C 557.26533,424.75391 555.11584,423.67379 553.43329,422.02552 C 548.13114,418.12434 554.45243,417.68178 556.29592,416.31337 C 560.82063,417.66181 565.14563,419.56553 569.47922,421.41648 C 573.2166,423.05183 576.88288,424.84173 580.56115,426.60396 C 582.26601,434.96851 576.54698,427.91374 575.67022,428.01037 C 573.31516,423.29995 574.12768,419.34599 575.52449,414.56692 C 578.3776,409.09139 582.87249,407.10008 588.40639,405.36432 C 590.78658,404.88996 593.03134,405.54059 595.34672,405.8643 L 595.35046,407.5387 C 593.52366,408.20848 591.47984,408.4062 589.83075,409.56244 C 586.26485,411.39754 582.73369,413.05579 580.58754,416.619 C 579.83705,419.70518 578.82023,422.10692 580.43036,425.23045 C 580.15374,426.33521 583.83062,433.35681 578.0043,431.34882 C 574.52369,429.52685 571.03635,427.69327 567.40278,426.17296 C 563.31389,424.43238 559.23617,422.62202 554.9573,421.38706 C 554.84342,420.3434 551.75494,414.81332 556.57379,417.80746 C 559.77624,420.78012 562.83956,423.03095 563.00038,427.84758 C 561.61525,432.9134 559.57192,436.30547 554.56517,438.74902 C 549.26282,440.50838 545.0403,441.74982 541.76617,436.20775 C 541.64118,431.17756 542.61527,427.04531 545.72758,422.82319 C 547.04469,420.82305 547.99583,417.21978 550.17588,418.70403 C 546.86446,418.5238 543.12712,418.09374 539.66531,419.31005 C 534.92693,420.4272 530.0895,421.39171 525.65548,423.47395 C 525.6172,423.73319 522.83195,423.49502 525.40816,425.14888 C 527.16642,426.9507 528.78784,428.90975 530.8079,430.4453 C 528.93614,429.84062 528.46645,434.65297 528.14121,429.58381 C 526.91155,423.81342 526.06449,417.99735 526.08422,412.07354 C 526.33634,406.39301 526.30368,400.60304 529.04905,395.4407 L 533.06417,397.86493 z" />
      </g>
      <g
         style="fill:#32cd32"
         transform="matrix(0.3950618,-9.7665706e-4,9.7665706e-4,0.3950618,26.211967,35.791899)"
         id="g2336">
        <path
           style="opacity:1;fill:#32cd32;fill-opacity:1;stroke-width:1;stroke-miterlimit:4;stroke-dasharray:none"
           id="path2304"
           d="M 742.36908,358.80486 C 741.9626,363.02268 741.22945,367.19595 740.52501,371.37072 C 739.38343,377.47908 737.91278,383.51876 736.50999,389.57059 C 735.04944,396.13395 733.23944,402.60228 731.33942,409.04806 C 729.42396,415.23648 726.70189,421.11025 723.98164,426.97209 C 721.14113,432.95577 718.01689,438.79441 714.86671,444.6182 C 711.94839,450.0059 708.70627,455.20336 705.44749,460.38814 C 702.58738,464.94666 699.4723,469.3319 696.32721,473.69511 C 693.54582,477.56634 690.46548,481.196 687.3297,484.77882 C 684.67026,487.76933 681.89721,490.65673 679.15031,493.5666 C 676.74184,496.20893 674.17467,498.69616 671.63205,501.20681 C 669.32926,503.36788 667.12741,505.62948 664.91835,507.88468 C 663.01969,510.03078 660.83988,511.8724 658.69768,513.75755 C 656.39533,515.87031 653.58146,516.47927 650.6875,517.28088 C 650.23665,517.33955 649.7858,517.39823 649.33494,517.45691 L 649.02021,516.79768 C 649.30962,516.50293 649.59904,516.20818 649.88845,515.91343 C 651.66285,513.81077 653.18935,511.52454 655.52475,509.96965 C 657.46662,508.12568 659.49361,506.36311 661.26568,504.34341 C 663.51331,502.05798 665.75293,499.76527 668.09196,497.57189 C 670.58669,495.11446 673.10577,492.68025 675.46922,490.09366 C 678.1856,487.22366 680.9155,484.36608 683.5604,481.42955 C 686.58236,477.9605 689.56324,474.45445 692.27795,470.73505 C 695.36609,466.46307 698.41998,462.16535 701.25169,457.71657 C 704.46187,452.62909 707.65696,447.52971 710.53021,442.24067 C 713.63633,436.50421 716.71528,430.75224 719.50758,424.85379 C 722.12728,419.20505 724.77223,413.55123 726.63387,407.59322 C 728.53231,401.26309 730.33639,394.90714 731.76334,388.44937 C 733.17758,382.49011 734.62677,376.53576 735.78892,370.52074 C 736.50507,366.4785 737.22767,362.43606 737.65244,358.34975 L 742.36908,358.80486 z"
           transform="translate(104.70073,43.737226)" />
        <path
           style="opacity:1;fill:#32cd32;fill-opacity:1;stroke-width:1;stroke-miterlimit:4;stroke-dasharray:none"
           id="path2306"
           d="M 657.8005,484.20916 C 656.43604,488.16487 655.40295,492.21866 654.36263,496.26716 C 653.29367,500.41396 652.64284,504.64605 651.93184,508.86322 C 651.52064,511.60806 651.17779,514.36268 650.81481,517.11361 C 650.75767,518.8265 650.19194,520.45465 649.88219,522.11612 C 649.70914,523.09428 648.66083,520.54918 648.05015,519.76571 C 651.77631,518.45607 655.62347,517.56451 659.45443,516.62941 C 664.45781,515.16243 669.41867,514.70301 674.57432,515.00122 C 675.74446,514.89153 676.63416,515.64658 677.66407,515.96925 L 677.57527,516.80184 C 676.66694,517.0606 675.7281,517.21092 674.85029,517.57812 C 670.19772,519.24491 665.46963,520.51243 660.61794,521.48278 C 656.93541,522.40443 653.22853,523.26991 649.66239,524.59214 C 646.85457,523.91505 644.29125,524.9866 645.11529,520.65175 C 645.38532,519.27489 645.88799,517.92106 645.93092,516.493 C 646.33875,513.69007 646.74927,510.88777 647.17931,508.08819 C 647.94214,503.74619 648.63916,499.38816 649.73938,495.11363 C 650.824,490.96075 651.93738,486.81624 653.2624,482.73164 L 657.8005,484.20916 z"
           transform="translate(107.62044,40.291971)" />
      </g>
      <g
         style="fill:#32cd32"
         transform="matrix(0.3897231,-6.473502e-2,6.473502e-2,0.3897231,-5.4447437,75.155228)"
         id="g2275">
        <path
           style="fill:#32cd32;fill-opacity:1;stroke-width:1;stroke-miterlimit:4;stroke-dasharray:none"
           id="path2308"
           d="M 296.40484,381.26163 C 297.0948,385.17303 298.23331,388.98529 299.30287,392.80452 C 300.75468,397.93479 302.45191,402.99047 304.10734,408.05718 C 305.75846,413.40159 307.81026,418.60002 309.89322,423.78575 C 312.08217,429.03866 314.49843,434.19131 316.86274,439.36641 C 319.0892,444.27205 321.20248,449.22796 323.28662,454.19534 C 325.22637,458.81018 327.47301,463.2717 329.82504,467.68541 C 332.22747,471.95212 334.74121,476.1561 337.2326,480.37154 C 339.42183,484.38702 342.00077,488.15893 344.59201,491.91934 C 347.23768,495.69876 349.95877,499.42482 352.66957,503.15759 C 355.2559,506.91795 358.16351,510.4316 361.08362,513.93235 C 363.99915,517.45689 366.99645,520.91227 369.94203,524.4109 C 372.41902,527.49801 375.11133,530.39804 377.76732,533.32853 C 380.55677,536.39611 383.5687,539.24447 386.59032,542.07861 C 389.71076,544.94829 393.03924,547.57762 396.32578,550.25162 C 399.15396,551.86752 400.32803,554.52189 402.00856,557.01238 C 402.38582,557.3375 402.13476,557.74378 402.19786,558.10949 L 401.98387,558.91209 C 401.63984,558.9323 400.62828,559.45025 400.28545,559.01188 C 397.68254,557.65587 394.94133,556.80168 392.97512,554.32292 C 389.6151,551.57765 386.21426,548.87577 383.01752,545.93864 C 379.8918,543.0113 376.77439,540.07076 373.8874,536.90296 C 371.16984,533.90139 368.39963,530.94169 365.9027,527.7489 C 362.97147,524.25097 359.98026,520.80441 357.0724,517.28682 C 354.07919,513.69944 351.09754,510.10109 348.4668,506.23293 C 345.71685,502.48228 342.9831,498.72025 340.32346,494.90479 C 337.65622,491.03173 335.01587,487.14004 332.7711,482.99959 C 330.24905,478.73019 327.70558,474.47164 325.27549,470.14928 C 322.84479,465.57893 320.5064,460.96471 318.53775,456.17079 C 316.47742,451.25106 314.40249,446.33723 312.22791,441.46653 C 309.84388,436.23467 307.3916,431.03129 305.21286,425.70904 C 303.08336,420.41021 301.01167,415.0889 299.35601,409.61745 C 297.69638,404.47847 296.02564,399.34221 294.55297,394.14548 C 293.46138,390.15851 292.32074,386.17712 291.56736,382.10819 L 296.40484,381.26163 z"
           transform="translate(82.861314,15.941605)" />
        <path
           style="fill:#32cd32;fill-opacity:1;stroke-width:1;stroke-miterlimit:4;stroke-dasharray:none"
           id="path2310"
           d="M 281.44145,409.72044 C 281.91903,404.59931 283.31987,399.65348 284.6424,394.70597 C 286.14044,389.54837 287.70297,384.41 289.20865,379.25469 C 289.87366,376.48853 290.76593,373.78427 291.5762,371.06705 C 294.28624,367.47948 295.07427,369.52669 298.18457,370.2543 C 299.29511,371.8433 299.98431,373.67212 300.82758,375.40693 C 302.98958,379.38273 306.15404,382.6254 309.18333,385.93242 C 313.35173,389.71761 316.91766,393.80333 319.78565,398.61999 C 320.00365,398.58911 320.89131,401.19138 321.00042,401.44513 L 320.13697,402.16568 C 319.28867,401.62437 318.35636,401.21595 317.59206,400.54174 C 313.17254,397.24554 309.21153,393.49829 305.41674,389.49054 C 302.05687,385.79525 298.5602,382.16129 296.20008,377.7063 C 295.56167,376.31351 294.97542,374.89342 294.26585,373.53572 C 294.69259,373.40973 296.46373,373.94505 296.20191,372.96413 C 295.40771,375.50678 294.55288,378.05112 293.87073,380.63592 C 292.29021,385.74745 290.68482,390.85146 289.169,395.98276 C 287.89888,400.63467 286.53178,405.28334 286.08385,410.10731 L 281.44145,409.72044 z"
           transform="translate(82.861314,15.941605)" />
      </g>
      <g
         style="fill:#ff0000"
         transform="matrix(0.395063,0,0,0.395063,33.692291,40.426161)"
         id="g2281">
        <path
           style="fill:#ff0000;fill-opacity:1;stroke-width:1;stroke-miterlimit:4;stroke-dasharray:none"
           id="path2328"
           d="M 409.10883,195.00184 C 413.554,189.93186 419.05177,185.96222 424.49463,182.04538 C 434.90712,174.74263 446.20577,168.9099 457.70394,163.54295 C 473.08761,156.52522 489.32015,151.76448 505.67033,147.62447 C 523.09695,143.2971 540.88829,140.92548 558.752,139.40582 C 576.71298,137.89671 594.73181,138.43899 612.69346,139.52964 C 630.06296,140.61229 647.29187,143.05749 664.40456,146.14972 C 679.40055,148.89859 694.03788,153.10559 708.3882,158.19958 C 719.36379,162.12361 729.78178,167.32133 739.67708,173.44769 C 745.65281,177.05725 750.90872,181.59433 755.91821,186.40742 C 758.43333,188.51162 759.74137,191.3867 761.35272,194.09347 C 761.7689,194.93132 761.04243,195.75591 760.91124,196.4588 L 760.10184,197.35717 C 759.25738,196.96775 758.13398,196.99533 757.48973,196.1526 C 755.92792,193.94828 754.45821,191.66662 752.52897,189.75168 C 747.8314,185.13681 742.89956,180.78956 737.26591,177.31526 C 727.68064,171.29638 717.56692,166.2071 706.90506,162.35823 C 692.79502,157.302 678.37748,153.15234 663.62377,150.42035 C 646.69179,147.28819 629.62947,144.88644 612.43627,143.75562 C 594.67996,142.67245 576.86436,142.10604 559.10693,143.58008 C 541.46778,145.07913 523.88896,147.34878 506.68093,151.63122 C 490.57415,155.67772 474.60509,160.3939 459.44689,167.27505 C 448.18474,172.53751 437.10886,178.25557 426.90392,185.4023 C 421.78377,189.067 416.5988,192.77576 412.44169,197.5522 L 409.10883,195.00184 z"
           transform="matrix(0.9413398,-1.3013647e-2,1.1912499e-2,1.0283538,26.897847,-28.889377)" />
        <path
           style="fill:#ff0000;fill-opacity:1;stroke-width:1;stroke-miterlimit:4;stroke-dasharray:none"
           id="path2330"
           d="M 755.17376,164.97911 C 755.94163,169.50678 756.59064,174.05286 757.25058,178.59711 C 757.89879,183.37247 758.80825,188.10297 759.69876,192.83636 C 760.27292,195.29124 760.77117,197.76218 761.29991,200.22668 C 760.90527,204.36856 763.66621,201.03499 757.77736,204.29114 C 756.42675,202.99666 754.63181,202.4234 753.043,201.53483 C 748.63222,199.67771 743.90993,198.88821 739.24148,197.99421 C 734.91609,197.34631 730.64714,196.38338 726.36845,195.48889 L 726.38949,194.28299 C 730.88587,193.60839 735.38483,192.91977 739.93905,193.63589 C 745.00936,194.49369 750.11478,195.29212 754.89431,197.29742 C 756.74878,198.27448 758.78611,198.95334 760.38039,200.3848 C 758.42995,200.76943 756.25302,204.48138 757.01718,201.04804 C 756.54058,198.58179 756.08532,196.11099 755.55815,193.65431 C 754.70049,188.8418 753.80662,184.03457 753.19156,179.18197 C 752.55938,174.66555 751.96629,170.14278 751.2218,165.64304 L 755.17376,164.97911 z"
           transform="matrix(0.9413398,-1.2653821e-2,1.1912499e-2,0.9999199,30.838902,-24.875159)" />
      </g>
    </g>
  </g>
</svg>
